<?xml version="1.0" encoding="UTF-8" standalone="no"?>
<!-- Created with Inkscape (http://www.inkscape.org/) -->

<svg
   xmlns:dc="http://purl.org/dc/elements/1.1/"
   xmlns:cc="http://creativecommons.org/ns#"
   xmlns:rdf="http://www.w3.org/1999/02/22-rdf-syntax-ns#"
   xmlns:svg="http://www.w3.org/2000/svg"
   xmlns="http://www.w3.org/2000/svg"
   xmlns:sodipodi="http://sodipodi.sourceforge.net/DTD/sodipodi-0.dtd"
   xmlns:inkscape="http://www.inkscape.org/namespaces/inkscape"
   width="744.09448819"
   height="1052.3622047"
   id="svg2"
   version="1.1"
   inkscape:version="0.48.4 r9939"
   sodipodi:docname="black_hole_bomb.svg">
  <defs
     id="defs4" />
  <sodipodi:namedview
     id="base"
     pagecolor="#ffffff"
     bordercolor="#666666"
     borderopacity="1.0"
     inkscape:pageopacity="0.0"
     inkscape:pageshadow="2"
     inkscape:zoom="2.8284271"
     inkscape:cx="263.73899"
     inkscape:cy="382.99396"
     inkscape:document-units="px"
     inkscape:current-layer="layer1"
     showgrid="false"
     inkscape:window-width="1042"
     inkscape:window-height="1002"
     inkscape:window-x="865"
     inkscape:window-y="1"
     inkscape:window-maximized="0" />
  <metadata
     id="metadata7">
    <rdf:RDF>
      <cc:Work
         rdf:about="">
        <dc:format>image/svg+xml</dc:format>
        <dc:type
           rdf:resource="http://purl.org/dc/dcmitype/StillImage" />
        <dc:title></dc:title>
      </cc:Work>
    </rdf:RDF>
  </metadata>
  <g
     inkscape:label="Layer 1"
     inkscape:groupmode="layer"
     id="layer1">
    <path
       sodipodi:type="arc"
       style="opacity:0.81415926;fill:none;stroke:#000000;stroke-width:0.57099998;stroke-linejoin:round;stroke-miterlimit:4;stroke-opacity:1;stroke-dasharray:none"
       id="path2985"
       sodipodi:cx="249.50768"
       sodipodi:cy="669.51434"
       sodipodi:rx="87.378197"
       sodipodi:ry="87.378197"
       d="m 336.88587,669.51434 a 87.378197,87.378197 0 1 1 -174.75639,0 87.378197,87.378197 0 1 1 174.75639,0 z"
       transform="translate(10.354057,0)" />
    <path
       sodipodi:type="arc"
       style="opacity:0.81415926;fill:none;stroke:#000000;stroke-width:0.57099998;stroke-linejoin:round;stroke-miterlimit:4;stroke-opacity:1;stroke-dasharray:none"
       id="path3755"
       sodipodi:cx="280.56985"
       sodipodi:cy="670.77704"
       sodipodi:rx="77.024132"
       sodipodi:ry="77.024132"
       d="m 357.59399,670.77704 a 77.024132,77.024132 0 1 1 -154.04827,0 77.024132,77.024132 0 1 1 154.04827,0 z"
       transform="matrix(1.0040443,0,0,0.98984748,-21.842831,5.547382)" />
    <g
       id="g3761"
       transform="translate(-4.4749145e-6,0)">
      <path
         transform="matrix(-1,0,0,-1,511.00239,1331.3572)"
         d="m 253.52738,664.4455 c -0.009,-0.051 0.0583,-0.074 0.097,-0.0696 0.12604,0.0143 0.16644,0.16873 0.13735,0.27267 -0.0666,0.23791 -0.35947,0.30177 -0.566,0.22202 -0.39078,-0.15089 -0.48428,-0.64217 -0.3232,-0.99251 0.27049,-0.5883 1.02639,-0.71768 1.56518,-0.44082 0.83363,0.42836 1.00528,1.52036 0.57501,2.29529 -0.62717,1.12957 -2.13141,1.35006 -3.19293,0.72598 -1.4787,-0.86935 -1.7548,-2.8662 -0.89398,-4.26728 1.15712,-1.88337 3.73079,-2.22205 5.52678,-1.07931 2.3458,1.49257 2.7542,4.73089 1.28225,6.97932 -1.87759,2.86805 -5.87177,3.35352 -8.63225,1.5031 -3.45209,-2.31402 -4.02214,-7.15842 -1.74218,-10.49252 2.80357,-4.09979 8.59557,-4.76211 12.56673,-1.99977 4.81292,3.34786 5.57539,10.1877 2.2762,14.86114 -3.94846,5.59318 -11.93911,6.46382 -17.38176,2.57175 -6.4422,-4.60686 -7.42921,-13.85391 -2.88671,-20.13434 5.32447,-7.36156 15.93604,-8.47327 23.12438,-3.22137 8.35278,6.10268 9.5977,18.18929 3.57601,26.35721 -6.53893,8.86952 -19.20337,10.71506 -28.39016,4.94174"
         sodipodi:t0="0.059999999"
         sodipodi:argument="-10.610819"
         sodipodi:radius="22.394186"
         sodipodi:revolution="5.04"
         sodipodi:expansion="2.3800001"
         sodipodi:cy="664.46362"
         sodipodi:cx="253.54829"
         id="path3757"
         style="fill:none;stroke:#000000;stroke-width:1px;stroke-linecap:butt;stroke-linejoin:miter;stroke-opacity:1"
         sodipodi:type="spiral" />
      <path
         transform="matrix(-1.1555804,0,0,-1.1555804,560.44471,1450.4877)"
         d="m 279.30719,675.82782 c 0,11.57626 -8.59296,20.96066 -19.1929,20.96066 -10.59995,0 -19.1929,-9.3844 -19.1929,-20.96066 0,-11.57626 8.59295,-20.96066 19.1929,-20.96066 10.59994,0 19.1929,9.3844 19.1929,20.96066 z"
         sodipodi:ry="20.960665"
         sodipodi:rx="19.192898"
         sodipodi:cy="675.82782"
         sodipodi:cx="260.11429"
         id="path3759"
         style="opacity:0.81415926;fill:none;stroke:#000000;stroke-width:0.57099998;stroke-linejoin:round;stroke-miterlimit:4;stroke-opacity:1;stroke-dasharray:none"
         sodipodi:type="arc" />
    </g>
    <path
       sodipodi:type="arc"
       style="opacity:0.81415926;fill:none;stroke:#000000;stroke-width:0.57099998;stroke-linejoin:round;stroke-miterlimit:4;stroke-opacity:1;stroke-dasharray:none"
       id="path6142"
       sodipodi:cx="267.28638"
       sodipodi:cy="680.77759"
       sodipodi:rx="52.325901"
       sodipodi:ry="52.325901"
       d="m 319.61228,680.77759 a 52.325901,52.325901 0 1 1 -104.6518,0 52.325901,52.325901 0 1 1 104.6518,0 z"
       transform="translate(-7.4246448,-11.26327)" />
    <path
       transform="matrix(0.96976876,0,0,0.96639039,0.65575383,11.617399)"
       d="m 319.61228,680.77759 a 52.325901,52.325901 0 1 1 -104.6518,0 52.325901,52.325901 0 1 1 104.6518,0 z"
       sodipodi:ry="52.325901"
       sodipodi:rx="52.325901"
       sodipodi:cy="680.77759"
       sodipodi:cx="267.28638"
       id="path6144"
       style="opacity:0.81415926;fill:none;stroke:#000000;stroke-width:0.57099998;stroke-linejoin:round;stroke-miterlimit:4;stroke-opacity:1;stroke-dasharray:none"
       sodipodi:type="arc" />
    <path
       transform="matrix(-0.85677968,0,0,-0.89715212,482.72237,1227.2349)"
       d="m 279.30719,675.82782 a 19.192898,20.960665 0 1 1 -38.3858,0 19.192898,20.960665 0 1 1 38.3858,0 z"
       sodipodi:ry="20.960665"
       sodipodi:rx="19.192898"
       sodipodi:cy="675.82782"
       sodipodi:cx="260.11429"
       id="path6076-6"
       style="fill:#ffffff;fill-opacity:1;stroke:#000000;stroke-width:0.57099998;stroke-linejoin:round;stroke-miterlimit:4;stroke-opacity:1;stroke-dasharray:none"
       sodipodi:type="arc" />
    <g
       id="g6239"
       transform="matrix(1,0,0,-1,0.53031906,1444.9937)">
      <path
         sodipodi:type="arc"
         style="fill:#ffffff;fill-opacity:1;stroke:#000000;stroke-width:0.57099998;stroke-linejoin:round;stroke-miterlimit:4;stroke-opacity:1;stroke-dasharray:none"
         id="path6076"
         sodipodi:cx="260.11429"
         sodipodi:cy="675.82782"
         sodipodi:rx="19.192898"
         sodipodi:ry="20.960665"
         d="m 279.30719,675.82782 c 0,11.57626 -8.59296,20.96066 -19.1929,20.96066 -10.59995,0 -19.1929,-9.3844 -19.1929,-20.96066 0,-11.57626 8.59295,-20.96066 19.1929,-20.96066 10.59994,0 19.1929,9.3844 19.1929,20.96066 z"
         transform="matrix(-0.54742501,0,0,-0.5732203,401.72448,1109.8951)" />
      <path
         sodipodi:type="spiral"
         style="fill:#ffffff;fill-opacity:1;stroke:#000000;stroke-width:1px;stroke-linecap:butt;stroke-linejoin:miter;stroke-opacity:1"
         id="path6074"
         sodipodi:cx="253.54829"
         sodipodi:cy="664.46362"
         sodipodi:expansion="2.3800001"
         sodipodi:revolution="5.04"
         sodipodi:radius="22.394186"
         sodipodi:argument="-10.610819"
         sodipodi:t0="0.059999999"
         d="m 253.52738,664.4455 c -0.009,-0.051 0.0583,-0.074 0.097,-0.0696 0.12604,0.0143 0.16644,0.16873 0.13735,0.27267 -0.0666,0.23791 -0.35947,0.30177 -0.566,0.22202 -0.39078,-0.15089 -0.48428,-0.64217 -0.3232,-0.99251 0.27049,-0.5883 1.02639,-0.71768 1.56518,-0.44082 0.83363,0.42836 1.00528,1.52036 0.57501,2.29529 -0.62717,1.12957 -2.13141,1.35006 -3.19293,0.72598 -1.4787,-0.86935 -1.7548,-2.8662 -0.89398,-4.26728 1.15712,-1.88337 3.73079,-2.22205 5.52678,-1.07931 2.3458,1.49257 2.7542,4.73089 1.28225,6.97932 -1.87759,2.86805 -5.87177,3.35352 -8.63225,1.5031 -3.45209,-2.31402 -4.02214,-7.15842 -1.74218,-10.49252 2.80357,-4.09979 8.59557,-4.76211 12.56673,-1.99977 4.81292,3.34786 5.57539,10.1877 2.2762,14.86114 -3.94846,5.59318 -11.93911,6.46382 -17.38176,2.57175 -6.4422,-4.60686 -7.42921,-13.85391 -2.88671,-20.13434 5.32447,-7.36156 15.93604,-8.47327 23.12438,-3.22137 8.35278,6.10268 9.5977,18.18929 3.57601,26.35721 -6.53893,8.86952 -19.20337,10.71506 -28.39016,4.94174"
         transform="matrix(-0.473723,0,0,-0.49604536,378.30252,1050.801)" />
    </g>
    <g
       id="g6257"
       transform="matrix(-1,0,0,1,419.66787,2.1717513)">
      <path
         transform="matrix(-0.54742501,0,0,-0.5732203,352.227,1054.7408)"
         d="m 279.30719,675.82782 c 0,11.57626 -8.59296,20.96066 -19.1929,20.96066 -10.59995,0 -19.1929,-9.3844 -19.1929,-20.96066 0,-11.57626 8.59295,-20.96066 19.1929,-20.96066 10.59994,0 19.1929,9.3844 19.1929,20.96066 z"
         sodipodi:ry="20.960665"
         sodipodi:rx="19.192898"
         sodipodi:cy="675.82782"
         sodipodi:cx="260.11429"
         id="path6251"
         style="fill:#ffffff;fill-opacity:1;stroke:#000000;stroke-width:0.57099998;stroke-linejoin:round;stroke-miterlimit:4;stroke-opacity:1;stroke-dasharray:none"
         sodipodi:type="arc" />
      <path
         transform="matrix(-0.473723,0,0,-0.49604536,328.80504,995.64667)"
         d="m 253.52738,664.4455 c -0.009,-0.051 0.0583,-0.074 0.097,-0.0696 0.12604,0.0143 0.16644,0.16873 0.13735,0.27267 -0.0666,0.23791 -0.35947,0.30177 -0.566,0.22202 -0.39078,-0.15089 -0.48428,-0.64217 -0.3232,-0.99251 0.27049,-0.5883 1.02639,-0.71768 1.56518,-0.44082 0.83363,0.42836 1.00528,1.52036 0.57501,2.29529 -0.62717,1.12957 -2.13141,1.35006 -3.19293,0.72598 -1.4787,-0.86935 -1.7548,-2.8662 -0.89398,-4.26728 1.15712,-1.88337 3.73079,-2.22205 5.52678,-1.07931 2.3458,1.49257 2.7542,4.73089 1.28225,6.97932 -1.87759,2.86805 -5.87177,3.35352 -8.63225,1.5031 -3.45209,-2.31402 -4.02214,-7.15842 -1.74218,-10.49252 2.80357,-4.09979 8.59557,-4.76211 12.56673,-1.99977 4.81292,3.34786 5.57539,10.1877 2.2762,14.86114 -3.94846,5.59318 -11.93911,6.46382 -17.38176,2.57175 -6.4422,-4.60686 -7.42921,-13.85391 -2.88671,-20.13434 5.32447,-7.36156 15.93604,-8.47327 23.12438,-3.22137 8.35278,6.10268 9.5977,18.18929 3.57601,26.35721 -6.53893,8.86952 -19.20337,10.71506 -28.39016,4.94174"
         sodipodi:t0="0.059999999"
         sodipodi:argument="-10.610819"
         sodipodi:radius="22.394186"
         sodipodi:revolution="5.04"
         sodipodi:expansion="2.3800001"
         sodipodi:cy="664.46362"
         sodipodi:cx="253.54829"
         id="path6253"
         style="fill:#ffffff;fill-opacity:1;stroke:#000000;stroke-width:1px;stroke-linecap:butt;stroke-linejoin:miter;stroke-opacity:1"
         sodipodi:type="spiral" />
    </g>
    <g
       id="g6263"
       transform="matrix(-1,0,0,1,624.02173,2.1717513)">
      <path
         sodipodi:type="arc"
         style="fill:#ffffff;fill-opacity:1;stroke:#000000;stroke-width:0.57099998;stroke-linejoin:round;stroke-miterlimit:4;stroke-opacity:1;stroke-dasharray:none"
         id="path6070"
         sodipodi:cx="260.11429"
         sodipodi:cy="675.82782"
         sodipodi:rx="19.192898"
         sodipodi:ry="20.960665"
         d="m 279.30719,675.82782 c 0,11.57626 -8.59296,20.96066 -19.1929,20.96066 -10.59995,0 -19.1929,-9.3844 -19.1929,-20.96066 0,-11.57626 8.59295,-20.96066 19.1929,-20.96066 10.59994,0 19.1929,9.3844 19.1929,20.96066 z"
         transform="matrix(-0.54742501,0,0,-0.5732203,454.40393,1054.7408)" />
      <path
         sodipodi:type="spiral"
         style="fill:none;stroke:#000000;stroke-width:1px;stroke-linecap:butt;stroke-linejoin:miter;stroke-opacity:1"
         id="path6068"
         sodipodi:cx="253.54829"
         sodipodi:cy="664.46362"
         sodipodi:expansion="2.3800001"
         sodipodi:revolution="5.04"
         sodipodi:radius="22.394186"
         sodipodi:argument="-10.610819"
         sodipodi:t0="0.059999999"
         d="m 253.52738,664.4455 c -0.009,-0.051 0.0583,-0.074 0.097,-0.0696 0.12604,0.0143 0.16644,0.16873 0.13735,0.27267 -0.0666,0.23791 -0.35947,0.30177 -0.566,0.22202 -0.39078,-0.15089 -0.48428,-0.64217 -0.3232,-0.99251 0.27049,-0.5883 1.02639,-0.71768 1.56518,-0.44082 0.83363,0.42836 1.00528,1.52036 0.57501,2.29529 -0.62717,1.12957 -2.13141,1.35006 -3.19293,0.72598 -1.4787,-0.86935 -1.7548,-2.8662 -0.89398,-4.26728 1.15712,-1.88337 3.73079,-2.22205 5.52678,-1.07931 2.3458,1.49257 2.7542,4.73089 1.28225,6.97932 -1.87759,2.86805 -5.87177,3.35352 -8.63225,1.5031 -3.45209,-2.31402 -4.02214,-7.15842 -1.74218,-10.49252 2.80357,-4.09979 8.59557,-4.76211 12.56673,-1.99977 4.81292,3.34786 5.57539,10.1877 2.2762,14.86114 -3.94846,5.59318 -11.93911,6.46382 -17.38176,2.57175 -6.4422,-4.60686 -7.42921,-13.85391 -2.88671,-20.13434 5.32447,-7.36156 15.93604,-8.47327 23.12438,-3.22137 8.35278,6.10268 9.5977,18.18929 3.57601,26.35721 -6.53893,8.86952 -19.20337,10.71506 -28.39016,4.94174"
         transform="matrix(-0.473723,0,0,-0.49604536,430.98197,995.64663)" />
    </g>
    <g
       id="g6303"
       transform="matrix(0.84390279,0,0,0.63945898,-1.8041038,402.55748)">
      <g
         inkscape:transform-center-y="-77.875"
         inkscape:transform-center-x="-0.75"
         inkscape:tile-y0="582.91545"
         inkscape:tile-x0="256.49347"
         inkscape:tile-h="16.714861"
         inkscape:tile-w="8.0487804"
         inkscape:tile-cy="670.27288"
         inkscape:tile-cx="258.39286"
         transform="matrix(1.9512195,0,0,1.3565683,-46.919742,-232.65636)"
         id="g6305">
        <path
           style="fill:none;stroke:#000000;stroke-width:1px;stroke-linecap:butt;stroke-linejoin:miter;stroke-opacity:1"
           d="m 180.89286,567.36218 c 0,12.32143 0,12.32143 0,12.32143"
           id="path6307"
           inkscape:connector-curvature="0" />
        <path
           inkscape:connector-curvature="0"
           id="path6309"
           d="m 185.01786,567.36218 c 0,12.32143 0,12.32143 0,12.32143"
           style="fill:none;stroke:#000000;stroke-width:1px;stroke-linecap:butt;stroke-linejoin:miter;stroke-opacity:1" />
        <path
           style="fill:none;stroke:#000000;stroke-width:1px;stroke-linecap:butt;stroke-linejoin:miter;stroke-opacity:1"
           d="m 182.89286,567.36218 c 0,12.32143 0,12.32143 0,12.32143"
           id="path6311"
           inkscape:connector-curvature="0" />
      </g>
    </g>
    <g
       transform="matrix(0.84390279,0,0,0.63945898,-1.8041038,239.04439)"
       id="g6313">
      <g
         id="g6315"
         transform="matrix(1.9512195,0,0,1.3565683,-46.919742,-232.65636)"
         inkscape:tile-cx="258.39286"
         inkscape:tile-cy="670.27288"
         inkscape:tile-w="8.0487804"
         inkscape:tile-h="16.714861"
         inkscape:tile-x0="256.49347"
         inkscape:tile-y0="582.91545"
         inkscape:transform-center-x="-0.75"
         inkscape:transform-center-y="-77.875">
        <path
           inkscape:connector-curvature="0"
           id="path6317"
           d="m 180.89286,567.36218 c 0,12.32143 0,12.32143 0,12.32143"
           style="fill:none;stroke:#000000;stroke-width:1px;stroke-linecap:butt;stroke-linejoin:miter;stroke-opacity:1" />
        <path
           style="fill:none;stroke:#000000;stroke-width:1px;stroke-linecap:butt;stroke-linejoin:miter;stroke-opacity:1"
           d="m 185.01786,567.36218 c 0,12.32143 0,12.32143 0,12.32143"
           id="path6319"
           inkscape:connector-curvature="0" />
        <path
           inkscape:connector-curvature="0"
           id="path6321"
           d="m 182.89286,567.36218 c 0,12.32143 0,12.32143 0,12.32143"
           style="fill:none;stroke:#000000;stroke-width:1px;stroke-linecap:butt;stroke-linejoin:miter;stroke-opacity:1" />
      </g>
    </g>
    <g
       id="g6323"
       transform="matrix(0,-0.84390279,0.63945898,0,-171.60934,930.05998)">
      <g
         inkscape:transform-center-y="-77.875"
         inkscape:transform-center-x="-0.75"
         inkscape:tile-y0="582.91545"
         inkscape:tile-x0="256.49347"
         inkscape:tile-h="16.714861"
         inkscape:tile-w="8.0487804"
         inkscape:tile-cy="670.27288"
         inkscape:tile-cx="258.39286"
         transform="matrix(1.9512195,0,0,1.3565683,-46.919742,-232.65636)"
         id="g6325">
        <path
           style="fill:none;stroke:#000000;stroke-width:1px;stroke-linecap:butt;stroke-linejoin:miter;stroke-opacity:1"
           d="m 180.89286,567.36218 c 0,12.32143 0,12.32143 0,12.32143"
           id="path6327"
           inkscape:connector-curvature="0" />
        <path
           inkscape:connector-curvature="0"
           id="path6329"
           d="m 185.01786,567.36218 c 0,12.32143 0,12.32143 0,12.32143"
           style="fill:none;stroke:#000000;stroke-width:1px;stroke-linecap:butt;stroke-linejoin:miter;stroke-opacity:1" />
        <path
           style="fill:none;stroke:#000000;stroke-width:1px;stroke-linecap:butt;stroke-linejoin:miter;stroke-opacity:1"
           d="m 182.89286,567.36218 c 0,12.32143 0,12.32143 0,12.32143"
           id="path6331"
           inkscape:connector-curvature="0" />
      </g>
    </g>
    <g
       transform="matrix(0,-0.84390279,0.63945898,0,-6.1463531,930.05998)"
       id="g6333">
      <g
         id="g6335"
         transform="matrix(1.9512195,0,0,1.3565683,-46.919742,-232.65636)"
         inkscape:tile-cx="258.39286"
         inkscape:tile-cy="670.27288"
         inkscape:tile-w="8.0487804"
         inkscape:tile-h="16.714861"
         inkscape:tile-x0="256.49347"
         inkscape:tile-y0="582.91545"
         inkscape:transform-center-x="-0.75"
         inkscape:transform-center-y="-77.875">
        <path
           inkscape:connector-curvature="0"
           id="path6337"
           d="m 180.89286,567.36218 c 0,12.32143 0,12.32143 0,12.32143"
           style="fill:none;stroke:#000000;stroke-width:1px;stroke-linecap:butt;stroke-linejoin:miter;stroke-opacity:1" />
        <path
           style="fill:none;stroke:#000000;stroke-width:1px;stroke-linecap:butt;stroke-linejoin:miter;stroke-opacity:1"
           d="m 185.01786,567.36218 c 0,12.32143 0,12.32143 0,12.32143"
           id="path6339"
           inkscape:connector-curvature="0" />
        <path
           inkscape:connector-curvature="0"
           id="path6341"
           d="m 182.89286,567.36218 c 0,12.32143 0,12.32143 0,12.32143"
           style="fill:none;stroke:#000000;stroke-width:1px;stroke-linecap:butt;stroke-linejoin:miter;stroke-opacity:1" />
      </g>
    </g>
    <g
       id="g6343"
       transform="matrix(-0.59672939,-0.59672939,0.45216578,-0.45216578,252.99841,1040.1407)">
      <g
         inkscape:transform-center-y="-77.875"
         inkscape:transform-center-x="-0.75"
         inkscape:tile-y0="582.91545"
         inkscape:tile-x0="256.49347"
         inkscape:tile-h="16.714861"
         inkscape:tile-w="8.0487804"
         inkscape:tile-cy="670.27288"
         inkscape:tile-cx="258.39286"
         transform="matrix(1.9512195,0,0,1.3565683,-46.919742,-232.65636)"
         id="g6345">
        <path
           style="fill:none;stroke:#000000;stroke-width:1px;stroke-linecap:butt;stroke-linejoin:miter;stroke-opacity:1"
           d="m 180.89286,567.36218 c 0,12.32143 0,12.32143 0,12.32143"
           id="path6347"
           inkscape:connector-curvature="0" />
        <path
           inkscape:connector-curvature="0"
           id="path6349"
           d="m 185.01786,567.36218 c 0,12.32143 0,12.32143 0,12.32143"
           style="fill:none;stroke:#000000;stroke-width:1px;stroke-linecap:butt;stroke-linejoin:miter;stroke-opacity:1" />
        <path
           style="fill:none;stroke:#000000;stroke-width:1px;stroke-linecap:butt;stroke-linejoin:miter;stroke-opacity:1"
           d="m 182.89286,567.36218 c 0,12.32143 0,12.32143 0,12.32143"
           id="path6351"
           inkscape:connector-curvature="0" />
      </g>
    </g>
    <g
       transform="matrix(-0.59672939,-0.59672939,0.45216578,-0.45216578,138.63631,1157.6067)"
       id="g6353">
      <g
         id="g6355"
         transform="matrix(1.9512195,0,0,1.3565683,-46.919742,-232.65636)"
         inkscape:tile-cx="258.39286"
         inkscape:tile-cy="670.27288"
         inkscape:tile-w="8.0487804"
         inkscape:tile-h="16.714861"
         inkscape:tile-x0="256.49347"
         inkscape:tile-y0="582.91545"
         inkscape:transform-center-x="-0.75"
         inkscape:transform-center-y="-77.875">
        <path
           inkscape:connector-curvature="0"
           id="path6357"
           d="m 180.89286,567.36218 c 0,12.32143 0,12.32143 0,12.32143"
           style="fill:none;stroke:#000000;stroke-width:1px;stroke-linecap:butt;stroke-linejoin:miter;stroke-opacity:1" />
        <path
           style="fill:none;stroke:#000000;stroke-width:1px;stroke-linecap:butt;stroke-linejoin:miter;stroke-opacity:1"
           d="m 185.01786,567.36218 c 0,12.32143 0,12.32143 0,12.32143"
           id="path6359"
           inkscape:connector-curvature="0" />
        <path
           inkscape:connector-curvature="0"
           id="path6361"
           d="m 182.89286,567.36218 c 0,12.32143 0,12.32143 0,12.32143"
           style="fill:none;stroke:#000000;stroke-width:1px;stroke-linecap:butt;stroke-linejoin:miter;stroke-opacity:1" />
      </g>
    </g>
    <g
       transform="matrix(0.59672939,-0.59672939,-0.45216578,-0.45216578,261.80575,1044.53)"
       id="g6363">
      <g
         id="g6365"
         transform="matrix(1.9512195,0,0,1.3565683,-46.919742,-232.65636)"
         inkscape:tile-cx="258.39286"
         inkscape:tile-cy="670.27288"
         inkscape:tile-w="8.0487804"
         inkscape:tile-h="16.714861"
         inkscape:tile-x0="256.49347"
         inkscape:tile-y0="582.91545"
         inkscape:transform-center-x="-0.75"
         inkscape:transform-center-y="-77.875">
        <path
           inkscape:connector-curvature="0"
           id="path6367"
           d="m 180.89286,567.36218 c 0,12.32143 0,12.32143 0,12.32143"
           style="fill:none;stroke:#000000;stroke-width:1px;stroke-linecap:butt;stroke-linejoin:miter;stroke-opacity:1" />
        <path
           style="fill:none;stroke:#000000;stroke-width:1px;stroke-linecap:butt;stroke-linejoin:miter;stroke-opacity:1"
           d="m 185.01786,567.36218 c 0,12.32143 0,12.32143 0,12.32143"
           id="path6369"
           inkscape:connector-curvature="0" />
        <path
           inkscape:connector-curvature="0"
           id="path6371"
           d="m 182.89286,567.36218 c 0,12.32143 0,12.32143 0,12.32143"
           style="fill:none;stroke:#000000;stroke-width:1px;stroke-linecap:butt;stroke-linejoin:miter;stroke-opacity:1" />
      </g>
    </g>
    <g
       id="g6373"
       transform="matrix(0.59672939,-0.59672939,-0.45216578,-0.45216578,379.69494,1158.9174)">
      <g
         inkscape:transform-center-y="-77.875"
         inkscape:transform-center-x="-0.75"
         inkscape:tile-y0="582.91545"
         inkscape:tile-x0="256.49347"
         inkscape:tile-h="16.714861"
         inkscape:tile-w="8.0487804"
         inkscape:tile-cy="670.27288"
         inkscape:tile-cx="258.39286"
         transform="matrix(1.9512195,0,0,1.3565683,-46.919742,-232.65636)"
         id="g6375">
        <path
           style="fill:none;stroke:#000000;stroke-width:1px;stroke-linecap:butt;stroke-linejoin:miter;stroke-opacity:1"
           d="m 180.89286,567.36218 c 0,12.32143 0,12.32143 0,12.32143"
           id="path6377"
           inkscape:connector-curvature="0" />
        <path
           inkscape:connector-curvature="0"
           id="path6379"
           d="m 185.01786,567.36218 c 0,12.32143 0,12.32143 0,12.32143"
           style="fill:none;stroke:#000000;stroke-width:1px;stroke-linecap:butt;stroke-linejoin:miter;stroke-opacity:1" />
        <path
           style="fill:none;stroke:#000000;stroke-width:1px;stroke-linecap:butt;stroke-linejoin:miter;stroke-opacity:1"
           d="m 182.89286,567.36218 c 0,12.32143 0,12.32143 0,12.32143"
           id="path6381"
           inkscape:connector-curvature="0" />
      </g>
    </g>
  </g>
</svg>
