<?xml version="1.0" encoding="UTF-8" standalone="no"?>
<!-- Created with Inkscape (http://www.inkscape.org/) -->

<svg
   xmlns:dc="http://purl.org/dc/elements/1.1/"
   xmlns:cc="http://creativecommons.org/ns#"
   xmlns:rdf="http://www.w3.org/1999/02/22-rdf-syntax-ns#"
   xmlns:svg="http://www.w3.org/2000/svg"
   xmlns="http://www.w3.org/2000/svg"
   xmlns:sodipodi="http://sodipodi.sourceforge.net/DTD/sodipodi-0.dtd"
   xmlns:inkscape="http://www.inkscape.org/namespaces/inkscape"
   width="744.09448819"
   height="1052.3622047"
   id="svg9541"
   version="1.1"
   inkscape:version="0.48.4 r9939"
   sodipodi:docname="New document 16">
  <defs
     id="defs9543">
    <filter
       id="filter9127"
       inkscape:label="Darken edges"
       inkscape:menu="Shadows and Glows"
       inkscape:menu-tooltip="Darken the edges with an inner blur"
       color-interpolation-filters="sRGB">
      <feGaussianBlur
         id="feGaussianBlur9129"
         result="result6"
         stdDeviation="1.5" />
      <feComposite
         id="feComposite9131"
         in2="result6"
         operator="atop"
         in="SourceGraphic"
         result="result8" />
      <feComposite
         id="feComposite9133"
         in2="SourceAlpha"
         in="result8"
         operator="atop"
         result="result9" />
    </filter>
    <filter
       id="filter9119"
       inkscape:label="Darken edges"
       inkscape:menu="Shadows and Glows"
       inkscape:menu-tooltip="Darken the edges with an inner blur"
       color-interpolation-filters="sRGB">
      <feGaussianBlur
         id="feGaussianBlur9121"
         result="result6"
         stdDeviation="1.5" />
      <feComposite
         id="feComposite9123"
         in2="result6"
         operator="atop"
         in="SourceGraphic"
         result="result8" />
      <feComposite
         id="feComposite9125"
         in2="SourceAlpha"
         in="result8"
         operator="atop"
         result="result9" />
    </filter>
    <filter
       id="filter9111"
       inkscape:label="Darken edges"
       inkscape:menu="Shadows and Glows"
       inkscape:menu-tooltip="Darken the edges with an inner blur"
       color-interpolation-filters="sRGB">
      <feGaussianBlur
         id="feGaussianBlur9113"
         result="result6"
         stdDeviation="1.5" />
      <feComposite
         id="feComposite9115"
         in2="result6"
         operator="atop"
         in="SourceGraphic"
         result="result8" />
      <feComposite
         id="feComposite9117"
         in2="SourceAlpha"
         in="result8"
         operator="atop"
         result="result9" />
    </filter>
    <filter
       id="filter9103"
       inkscape:label="Darken edges"
       inkscape:menu="Shadows and Glows"
       inkscape:menu-tooltip="Darken the edges with an inner blur"
       color-interpolation-filters="sRGB">
      <feGaussianBlur
         id="feGaussianBlur9105"
         result="result6"
         stdDeviation="1.5" />
      <feComposite
         id="feComposite9107"
         in2="result6"
         operator="atop"
         in="SourceGraphic"
         result="result8" />
      <feComposite
         id="feComposite9109"
         in2="SourceAlpha"
         in="result8"
         operator="atop"
         result="result9" />
    </filter>
    <filter
       id="filter9095"
       inkscape:label="Darken edges"
       inkscape:menu="Shadows and Glows"
       inkscape:menu-tooltip="Darken the edges with an inner blur"
       color-interpolation-filters="sRGB">
      <feGaussianBlur
         id="feGaussianBlur9097"
         result="result6"
         stdDeviation="1.5" />
      <feComposite
         id="feComposite9099"
         in2="result6"
         operator="atop"
         in="SourceGraphic"
         result="result8" />
      <feComposite
         id="feComposite9101"
         in2="SourceAlpha"
         in="result8"
         operator="atop"
         result="result9" />
    </filter>
    <filter
       id="filter9087"
       inkscape:label="Darken edges"
       inkscape:menu="Shadows and Glows"
       inkscape:menu-tooltip="Darken the edges with an inner blur"
       color-interpolation-filters="sRGB">
      <feGaussianBlur
         id="feGaussianBlur9089"
         result="result6"
         stdDeviation="1.5" />
      <feComposite
         id="feComposite9091"
         in2="result6"
         operator="atop"
         in="SourceGraphic"
         result="result8" />
      <feComposite
         id="feComposite9093"
         in2="SourceAlpha"
         in="result8"
         operator="atop"
         result="result9" />
    </filter>
    <filter
       id="filter9079"
       inkscape:label="Darken edges"
       inkscape:menu="Shadows and Glows"
       inkscape:menu-tooltip="Darken the edges with an inner blur"
       color-interpolation-filters="sRGB">
      <feGaussianBlur
         id="feGaussianBlur9081"
         result="result6"
         stdDeviation="1.5" />
      <feComposite
         id="feComposite9083"
         in2="result6"
         operator="atop"
         in="SourceGraphic"
         result="result8" />
      <feComposite
         id="feComposite9085"
         in2="SourceAlpha"
         in="result8"
         operator="atop"
         result="result9" />
    </filter>
    <filter
       id="filter9071"
       inkscape:label="Darken edges"
       inkscape:menu="Shadows and Glows"
       inkscape:menu-tooltip="Darken the edges with an inner blur"
       color-interpolation-filters="sRGB">
      <feGaussianBlur
         id="feGaussianBlur9073"
         result="result6"
         stdDeviation="1.5" />
      <feComposite
         id="feComposite9075"
         in2="result6"
         operator="atop"
         in="SourceGraphic"
         result="result8" />
      <feComposite
         id="feComposite9077"
         in2="SourceAlpha"
         in="result8"
         operator="atop"
         result="result9" />
    </filter>
    <filter
       id="filter9063"
       inkscape:label="Darken edges"
       inkscape:menu="Shadows and Glows"
       inkscape:menu-tooltip="Darken the edges with an inner blur"
       color-interpolation-filters="sRGB">
      <feGaussianBlur
         id="feGaussianBlur9065"
         result="result6"
         stdDeviation="1.5" />
      <feComposite
         id="feComposite9067"
         in2="result6"
         operator="atop"
         in="SourceGraphic"
         result="result8" />
      <feComposite
         id="feComposite9069"
         in2="SourceAlpha"
         in="result8"
         operator="atop"
         result="result9" />
    </filter>
    <filter
       id="filter9055"
       inkscape:label="Darken edges"
       inkscape:menu="Shadows and Glows"
       inkscape:menu-tooltip="Darken the edges with an inner blur"
       color-interpolation-filters="sRGB">
      <feGaussianBlur
         id="feGaussianBlur9057"
         result="result6"
         stdDeviation="1.5" />
      <feComposite
         id="feComposite9059"
         in2="result6"
         operator="atop"
         in="SourceGraphic"
         result="result8" />
      <feComposite
         id="feComposite9061"
         in2="SourceAlpha"
         in="result8"
         operator="atop"
         result="result9" />
    </filter>
    <filter
       id="filter9047"
       inkscape:label="Darken edges"
       inkscape:menu="Shadows and Glows"
       inkscape:menu-tooltip="Darken the edges with an inner blur"
       color-interpolation-filters="sRGB">
      <feGaussianBlur
         id="feGaussianBlur9049"
         result="result6"
         stdDeviation="1.5" />
      <feComposite
         id="feComposite9051"
         in2="result6"
         operator="atop"
         in="SourceGraphic"
         result="result8" />
      <feComposite
         id="feComposite9053"
         in2="SourceAlpha"
         in="result8"
         operator="atop"
         result="result9" />
    </filter>
    <filter
       id="filter9039"
       inkscape:label="Darken edges"
       inkscape:menu="Shadows and Glows"
       inkscape:menu-tooltip="Darken the edges with an inner blur"
       color-interpolation-filters="sRGB">
      <feGaussianBlur
         id="feGaussianBlur9041"
         result="result6"
         stdDeviation="1.5" />
      <feComposite
         id="feComposite9043"
         in2="result6"
         operator="atop"
         in="SourceGraphic"
         result="result8" />
      <feComposite
         id="feComposite9045"
         in2="SourceAlpha"
         in="result8"
         operator="atop"
         result="result9" />
    </filter>
    <filter
       id="filter9031"
       inkscape:label="Darken edges"
       inkscape:menu="Shadows and Glows"
       inkscape:menu-tooltip="Darken the edges with an inner blur"
       color-interpolation-filters="sRGB">
      <feGaussianBlur
         id="feGaussianBlur9033"
         result="result6"
         stdDeviation="1.5" />
      <feComposite
         id="feComposite9035"
         in2="result6"
         operator="atop"
         in="SourceGraphic"
         result="result8" />
      <feComposite
         id="feComposite9037"
         in2="SourceAlpha"
         in="result8"
         operator="atop"
         result="result9" />
    </filter>
    <filter
       id="filter9023"
       inkscape:label="Darken edges"
       inkscape:menu="Shadows and Glows"
       inkscape:menu-tooltip="Darken the edges with an inner blur"
       color-interpolation-filters="sRGB">
      <feGaussianBlur
         id="feGaussianBlur9025"
         result="result6"
         stdDeviation="1.5" />
      <feComposite
         id="feComposite9027"
         in2="result6"
         operator="atop"
         in="SourceGraphic"
         result="result8" />
      <feComposite
         id="feComposite9029"
         in2="SourceAlpha"
         in="result8"
         operator="atop"
         result="result9" />
    </filter>
    <filter
       id="filter9015"
       inkscape:label="Darken edges"
       inkscape:menu="Shadows and Glows"
       inkscape:menu-tooltip="Darken the edges with an inner blur"
       color-interpolation-filters="sRGB">
      <feGaussianBlur
         id="feGaussianBlur9017"
         result="result6"
         stdDeviation="1.5" />
      <feComposite
         id="feComposite9019"
         in2="result6"
         operator="atop"
         in="SourceGraphic"
         result="result8" />
      <feComposite
         id="feComposite9021"
         in2="SourceAlpha"
         in="result8"
         operator="atop"
         result="result9" />
    </filter>
    <filter
       id="filter9007"
       inkscape:label="Darken edges"
       inkscape:menu="Shadows and Glows"
       inkscape:menu-tooltip="Darken the edges with an inner blur"
       color-interpolation-filters="sRGB">
      <feGaussianBlur
         id="feGaussianBlur9009"
         result="result6"
         stdDeviation="1.5" />
      <feComposite
         id="feComposite9011"
         in2="result6"
         operator="atop"
         in="SourceGraphic"
         result="result8" />
      <feComposite
         id="feComposite9013"
         in2="SourceAlpha"
         in="result8"
         operator="atop"
         result="result9" />
    </filter>
    <filter
       id="filter8999"
       inkscape:label="Darken edges"
       inkscape:menu="Shadows and Glows"
       inkscape:menu-tooltip="Darken the edges with an inner blur"
       color-interpolation-filters="sRGB">
      <feGaussianBlur
         id="feGaussianBlur9001"
         result="result6"
         stdDeviation="1.5" />
      <feComposite
         id="feComposite9003"
         in2="result6"
         operator="atop"
         in="SourceGraphic"
         result="result8" />
      <feComposite
         id="feComposite9005"
         in2="SourceAlpha"
         in="result8"
         operator="atop"
         result="result9" />
    </filter>
    <filter
       id="filter8991"
       inkscape:label="Darken edges"
       inkscape:menu="Shadows and Glows"
       inkscape:menu-tooltip="Darken the edges with an inner blur"
       color-interpolation-filters="sRGB">
      <feGaussianBlur
         id="feGaussianBlur8993"
         result="result6"
         stdDeviation="1.5" />
      <feComposite
         id="feComposite8995"
         in2="result6"
         operator="atop"
         in="SourceGraphic"
         result="result8" />
      <feComposite
         id="feComposite8997"
         in2="SourceAlpha"
         in="result8"
         operator="atop"
         result="result9" />
    </filter>
  </defs>
  <sodipodi:namedview
     id="base"
     pagecolor="#ffffff"
     bordercolor="#666666"
     borderopacity="1.0"
     inkscape:pageopacity="0.0"
     inkscape:pageshadow="2"
     inkscape:zoom="1.979899"
     inkscape:cx="483.87331"
     inkscape:cy="550.72019"
     inkscape:document-units="px"
     inkscape:current-layer="layer1"
     showgrid="false"
     inkscape:window-width="463"
     inkscape:window-height="423"
     inkscape:window-x="182"
     inkscape:window-y="182"
     inkscape:window-maximized="0" />
  <metadata
     id="metadata9546">
    <rdf:RDF>
      <cc:Work
         rdf:about="">
        <dc:format>image/svg+xml</dc:format>
        <dc:type
           rdf:resource="http://purl.org/dc/dcmitype/StillImage" />
        <dc:title></dc:title>
      </cc:Work>
    </rdf:RDF>
  </metadata>
  <g
     inkscape:label="Layer 1"
     inkscape:groupmode="layer"
     id="layer1">
    <g
       id="g4517"
       transform="translate(503.63938,-495.44431)">
      <g
         transform="translate(26.769042,-3.0304576)"
         id="g3922">
        <path
           sodipodi:type="arc"
           style="fill:#000000;fill-opacity:1;stroke:none"
           id="path3913"
           sodipodi:cx="166.42264"
           sodipodi:cy="433.0723"
           sodipodi:rx="69.44799"
           sodipodi:ry="69.44799"
           d="m 235.87063,433.0723 c 0,38.35506 -31.09293,69.44799 -69.44799,69.44799 -38.35507,0 -69.447992,-31.09293 -69.447992,-69.44799 0,-38.35507 31.092922,-69.44799 69.447992,-69.44799 38.35506,0 69.44799,31.09292 69.44799,69.44799 z"
           transform="matrix(0.64363638,0,0,0.64363638,-51.809805,717.81015)" />
        <g
           id="g3919">
          <path
             transform="translate(-128.28937,456.90785)"
             d="m 224.28571,539.46429 c 0,22.58451 -18.30836,40.89286 -40.89286,40.89286 -22.5845,0 -40.89285,-18.30835 -40.89285,-40.89286 0,-22.5845 18.30835,-40.89285 40.89285,-40.89285 22.5845,0 40.89286,18.30835 40.89286,40.89285 z"
             sodipodi:ry="40.892857"
             sodipodi:rx="40.892857"
             sodipodi:cy="539.46429"
             sodipodi:cx="183.39285"
             id="path3917"
             style="fill:#03cdf4;fill-opacity:1;stroke:none"
             sodipodi:type="arc" />
        </g>
      </g>
      <g
         id="g3927"
         transform="matrix(0.39936483,0,0,0.38616516,-97.04331,690.50789)">
        <path
           transform="translate(199.00005,115.15739)"
           d="m 336.88587,669.51434 c 0,48.25765 -39.12055,87.3782 -87.37819,87.3782 -48.25765,0 -87.3782,-39.12055 -87.3782,-87.3782 0,-48.25764 39.12055,-87.37819 87.3782,-87.37819 48.25764,0 87.37819,39.12055 87.37819,87.37819 z"
           sodipodi:ry="87.378197"
           sodipodi:rx="87.378197"
           sodipodi:cy="669.51434"
           sodipodi:cx="249.50768"
           id="path3929"
           style="opacity:0.81415926;fill:#0088ff;fill-opacity:1;stroke:#000000;stroke-width:0.57099998;stroke-linejoin:round;stroke-miterlimit:4;stroke-opacity:1;stroke-dasharray:none;filter:url(#filter9127)"
           sodipodi:type="arc" />
        <path
           transform="matrix(1.0040443,0,0,0.98984748,166.80316,120.70477)"
           d="m 357.59399,670.77704 c 0,42.53925 -34.48488,77.02413 -77.02414,77.02413 -42.53925,0 -77.02413,-34.48488 -77.02413,-77.02413 0,-42.53925 34.48488,-77.02413 77.02413,-77.02413 42.53926,0 77.02414,34.48488 77.02414,77.02413 z"
           sodipodi:ry="77.024132"
           sodipodi:rx="77.024132"
           sodipodi:cy="670.77704"
           sodipodi:cx="280.56985"
           id="path3931"
           style="opacity:0.81415926;fill:#b6d2ff;fill-opacity:1;stroke:#000000;stroke-width:0.57099998;stroke-linejoin:round;stroke-miterlimit:4;stroke-opacity:1;stroke-dasharray:none;filter:url(#filter9119)"
           sodipodi:type="arc" />
        <path
           transform="translate(181.22135,103.89412)"
           d="m 319.61228,680.77759 c 0,28.8988 -23.42711,52.3259 -52.3259,52.3259 -28.8988,0 -52.3259,-23.4271 -52.3259,-52.3259 0,-28.8988 23.4271,-52.3259 52.3259,-52.3259 28.89879,0 52.3259,23.4271 52.3259,52.3259 z"
           sodipodi:ry="52.325901"
           sodipodi:rx="52.325901"
           sodipodi:cy="680.77759"
           sodipodi:cx="267.28638"
           id="path3933"
           style="opacity:0.81415926;fill:#0000ff;stroke:#000000;stroke-width:0.57099998;stroke-linejoin:round;stroke-miterlimit:4;stroke-opacity:1;stroke-dasharray:none;filter:url(#filter9111)"
           sodipodi:type="arc" />
        <path
           sodipodi:type="arc"
           style="opacity:0.81415926;fill:#00f6ff;fill-opacity:0.81568627;stroke:#000000;stroke-width:0.57099998;stroke-linejoin:round;stroke-miterlimit:4;stroke-opacity:1;stroke-dasharray:none;filter:url(#filter9103)"
           id="path3935"
           sodipodi:cx="267.28638"
           sodipodi:cy="680.77759"
           sodipodi:rx="52.325901"
           sodipodi:ry="52.325901"
           d="m 319.61228,680.77759 c 0,28.8988 -23.42711,52.3259 -52.3259,52.3259 -28.8988,0 -52.3259,-23.4271 -52.3259,-52.3259 0,-28.8988 23.4271,-52.3259 52.3259,-52.3259 28.89879,0 52.3259,23.4271 52.3259,52.3259 z"
           transform="matrix(0.96976876,0,0,0.96639039,189.30175,126.77479)" />
        <g
           style="filter:url(#filter9095)"
           transform="matrix(0.84390279,0,0,0.63945898,186.84189,517.71487)"
           id="g3937">
          <g
             id="g3939"
             transform="matrix(1.9512195,0,0,1.3565683,-46.919742,-232.65636)"
             inkscape:tile-cx="258.39286"
             inkscape:tile-cy="670.27288"
             inkscape:tile-w="8.0487804"
             inkscape:tile-h="16.714861"
             inkscape:tile-x0="256.49347"
             inkscape:tile-y0="582.91545"
             inkscape:transform-center-x="-0.75"
             inkscape:transform-center-y="-77.875">
            <path
               inkscape:connector-curvature="0"
               id="path3941"
               d="m 180.89286,567.36218 c 0,12.32143 0,12.32143 0,12.32143"
               style="fill:none;stroke:#000000;stroke-width:1px;stroke-linecap:butt;stroke-linejoin:miter;stroke-opacity:1" />
            <path
               style="fill:none;stroke:#000000;stroke-width:1px;stroke-linecap:butt;stroke-linejoin:miter;stroke-opacity:1"
               d="m 185.01786,567.36218 c 0,12.32143 0,12.32143 0,12.32143"
               id="path3943"
               inkscape:connector-curvature="0" />
            <path
               inkscape:connector-curvature="0"
               id="path3945"
               d="m 182.89286,567.36218 c 0,12.32143 0,12.32143 0,12.32143"
               style="fill:none;stroke:#000000;stroke-width:1px;stroke-linecap:butt;stroke-linejoin:miter;stroke-opacity:1" />
          </g>
        </g>
        <g
           style="filter:url(#filter9087)"
           id="g3947"
           transform="matrix(0.84390279,0,0,0.63945898,186.84189,354.20178)">
          <g
             inkscape:transform-center-y="-77.875"
             inkscape:transform-center-x="-0.75"
             inkscape:tile-y0="582.91545"
             inkscape:tile-x0="256.49347"
             inkscape:tile-h="16.714861"
             inkscape:tile-w="8.0487804"
             inkscape:tile-cy="670.27288"
             inkscape:tile-cx="258.39286"
             transform="matrix(1.9512195,0,0,1.3565683,-46.919742,-232.65636)"
             id="g3949">
            <path
               style="fill:none;stroke:#000000;stroke-width:1px;stroke-linecap:butt;stroke-linejoin:miter;stroke-opacity:1"
               d="m 180.89286,567.36218 c 0,12.32143 0,12.32143 0,12.32143"
               id="path3951"
               inkscape:connector-curvature="0" />
            <path
               inkscape:connector-curvature="0"
               id="path3953"
               d="m 185.01786,567.36218 c 0,12.32143 0,12.32143 0,12.32143"
               style="fill:none;stroke:#000000;stroke-width:1px;stroke-linecap:butt;stroke-linejoin:miter;stroke-opacity:1" />
            <path
               style="fill:none;stroke:#000000;stroke-width:1px;stroke-linecap:butt;stroke-linejoin:miter;stroke-opacity:1"
               d="m 182.89286,567.36218 c 0,12.32143 0,12.32143 0,12.32143"
               id="path3955"
               inkscape:connector-curvature="0" />
          </g>
        </g>
        <g
           style="filter:url(#filter9079)"
           transform="matrix(0,-0.84390279,0.63945898,0,17.036655,1045.2174)"
           id="g3957">
          <g
             id="g3959"
             transform="matrix(1.9512195,0,0,1.3565683,-46.919742,-232.65636)"
             inkscape:tile-cx="258.39286"
             inkscape:tile-cy="670.27288"
             inkscape:tile-w="8.0487804"
             inkscape:tile-h="16.714861"
             inkscape:tile-x0="256.49347"
             inkscape:tile-y0="582.91545"
             inkscape:transform-center-x="-0.75"
             inkscape:transform-center-y="-77.875">
            <path
               inkscape:connector-curvature="0"
               id="path3961"
               d="m 180.89286,567.36218 c 0,12.32143 0,12.32143 0,12.32143"
               style="fill:none;stroke:#000000;stroke-width:1px;stroke-linecap:butt;stroke-linejoin:miter;stroke-opacity:1" />
            <path
               style="fill:none;stroke:#000000;stroke-width:1px;stroke-linecap:butt;stroke-linejoin:miter;stroke-opacity:1"
               d="m 185.01786,567.36218 c 0,12.32143 0,12.32143 0,12.32143"
               id="path3963"
               inkscape:connector-curvature="0" />
            <path
               inkscape:connector-curvature="0"
               id="path3965"
               d="m 182.89286,567.36218 c 0,12.32143 0,12.32143 0,12.32143"
               style="fill:none;stroke:#000000;stroke-width:1px;stroke-linecap:butt;stroke-linejoin:miter;stroke-opacity:1" />
          </g>
        </g>
        <g
           style="filter:url(#filter9071)"
           id="g3967"
           transform="matrix(0,-0.84390279,0.63945898,0,182.49964,1045.2174)">
          <g
             inkscape:transform-center-y="-77.875"
             inkscape:transform-center-x="-0.75"
             inkscape:tile-y0="582.91545"
             inkscape:tile-x0="256.49347"
             inkscape:tile-h="16.714861"
             inkscape:tile-w="8.0487804"
             inkscape:tile-cy="670.27288"
             inkscape:tile-cx="258.39286"
             transform="matrix(1.9512195,0,0,1.3565683,-46.919742,-232.65636)"
             id="g3969">
            <path
               style="fill:none;stroke:#000000;stroke-width:1px;stroke-linecap:butt;stroke-linejoin:miter;stroke-opacity:1"
               d="m 180.89286,567.36218 c 0,12.32143 0,12.32143 0,12.32143"
               id="path3971"
               inkscape:connector-curvature="0" />
            <path
               inkscape:connector-curvature="0"
               id="path3973"
               d="m 185.01786,567.36218 c 0,12.32143 0,12.32143 0,12.32143"
               style="fill:none;stroke:#000000;stroke-width:1px;stroke-linecap:butt;stroke-linejoin:miter;stroke-opacity:1" />
            <path
               style="fill:none;stroke:#000000;stroke-width:1px;stroke-linecap:butt;stroke-linejoin:miter;stroke-opacity:1"
               d="m 182.89286,567.36218 c 0,12.32143 0,12.32143 0,12.32143"
               id="path3975"
               inkscape:connector-curvature="0" />
          </g>
        </g>
        <g
           style="filter:url(#filter9063)"
           transform="matrix(-0.59672939,-0.59672939,0.45216578,-0.45216578,441.64441,1155.2981)"
           id="g3977">
          <g
             id="g3979"
             transform="matrix(1.9512195,0,0,1.3565683,-46.919742,-232.65636)"
             inkscape:tile-cx="258.39286"
             inkscape:tile-cy="670.27288"
             inkscape:tile-w="8.0487804"
             inkscape:tile-h="16.714861"
             inkscape:tile-x0="256.49347"
             inkscape:tile-y0="582.91545"
             inkscape:transform-center-x="-0.75"
             inkscape:transform-center-y="-77.875">
            <path
               inkscape:connector-curvature="0"
               id="path3981"
               d="m 180.89286,567.36218 c 0,12.32143 0,12.32143 0,12.32143"
               style="fill:none;stroke:#000000;stroke-width:1px;stroke-linecap:butt;stroke-linejoin:miter;stroke-opacity:1" />
            <path
               style="fill:none;stroke:#000000;stroke-width:1px;stroke-linecap:butt;stroke-linejoin:miter;stroke-opacity:1"
               d="m 185.01786,567.36218 c 0,12.32143 0,12.32143 0,12.32143"
               id="path3983"
               inkscape:connector-curvature="0" />
            <path
               inkscape:connector-curvature="0"
               id="path3985"
               d="m 182.89286,567.36218 c 0,12.32143 0,12.32143 0,12.32143"
               style="fill:none;stroke:#000000;stroke-width:1px;stroke-linecap:butt;stroke-linejoin:miter;stroke-opacity:1" />
          </g>
        </g>
        <g
           style="filter:url(#filter9055)"
           id="g3987"
           transform="matrix(-0.59672939,-0.59672939,0.45216578,-0.45216578,327.28231,1272.7641)">
          <g
             inkscape:transform-center-y="-77.875"
             inkscape:transform-center-x="-0.75"
             inkscape:tile-y0="582.91545"
             inkscape:tile-x0="256.49347"
             inkscape:tile-h="16.714861"
             inkscape:tile-w="8.0487804"
             inkscape:tile-cy="670.27288"
             inkscape:tile-cx="258.39286"
             transform="matrix(1.9512195,0,0,1.3565683,-46.919742,-232.65636)"
             id="g3989">
            <path
               style="fill:none;stroke:#000000;stroke-width:1px;stroke-linecap:butt;stroke-linejoin:miter;stroke-opacity:1"
               d="m 180.89286,567.36218 c 0,12.32143 0,12.32143 0,12.32143"
               id="path3991"
               inkscape:connector-curvature="0" />
            <path
               inkscape:connector-curvature="0"
               id="path3993"
               d="m 185.01786,567.36218 c 0,12.32143 0,12.32143 0,12.32143"
               style="fill:none;stroke:#000000;stroke-width:1px;stroke-linecap:butt;stroke-linejoin:miter;stroke-opacity:1" />
            <path
               style="fill:none;stroke:#000000;stroke-width:1px;stroke-linecap:butt;stroke-linejoin:miter;stroke-opacity:1"
               d="m 182.89286,567.36218 c 0,12.32143 0,12.32143 0,12.32143"
               id="path3995"
               inkscape:connector-curvature="0" />
          </g>
        </g>
        <g
           style="filter:url(#filter9047)"
           id="g3997"
           transform="matrix(0.59672939,-0.59672939,-0.45216578,-0.45216578,450.45174,1159.6874)">
          <g
             inkscape:transform-center-y="-77.875"
             inkscape:transform-center-x="-0.75"
             inkscape:tile-y0="582.91545"
             inkscape:tile-x0="256.49347"
             inkscape:tile-h="16.714861"
             inkscape:tile-w="8.0487804"
             inkscape:tile-cy="670.27288"
             inkscape:tile-cx="258.39286"
             transform="matrix(1.9512195,0,0,1.3565683,-46.919742,-232.65636)"
             id="g3999">
            <path
               style="fill:none;stroke:#000000;stroke-width:1px;stroke-linecap:butt;stroke-linejoin:miter;stroke-opacity:1"
               d="m 180.89286,567.36218 c 0,12.32143 0,12.32143 0,12.32143"
               id="path4001"
               inkscape:connector-curvature="0" />
            <path
               inkscape:connector-curvature="0"
               id="path4003"
               d="m 185.01786,567.36218 c 0,12.32143 0,12.32143 0,12.32143"
               style="fill:none;stroke:#000000;stroke-width:1px;stroke-linecap:butt;stroke-linejoin:miter;stroke-opacity:1" />
            <path
               style="fill:none;stroke:#000000;stroke-width:1px;stroke-linecap:butt;stroke-linejoin:miter;stroke-opacity:1"
               d="m 182.89286,567.36218 c 0,12.32143 0,12.32143 0,12.32143"
               id="path4005"
               inkscape:connector-curvature="0" />
          </g>
        </g>
        <g
           style="filter:url(#filter9039)"
           transform="matrix(0.59672939,-0.59672939,-0.45216578,-0.45216578,568.34093,1274.0748)"
           id="g4007">
          <g
             id="g4009"
             transform="matrix(1.9512195,0,0,1.3565683,-46.919742,-232.65636)"
             inkscape:tile-cx="258.39286"
             inkscape:tile-cy="670.27288"
             inkscape:tile-w="8.0487804"
             inkscape:tile-h="16.714861"
             inkscape:tile-x0="256.49347"
             inkscape:tile-y0="582.91545"
             inkscape:transform-center-x="-0.75"
             inkscape:transform-center-y="-77.875">
            <path
               inkscape:connector-curvature="0"
               id="path4011"
               d="m 180.89286,567.36218 c 0,12.32143 0,12.32143 0,12.32143"
               style="fill:none;stroke:#000000;stroke-width:1px;stroke-linecap:butt;stroke-linejoin:miter;stroke-opacity:1" />
            <path
               style="fill:none;stroke:#000000;stroke-width:1px;stroke-linecap:butt;stroke-linejoin:miter;stroke-opacity:1"
               d="m 185.01786,567.36218 c 0,12.32143 0,12.32143 0,12.32143"
               id="path4013"
               inkscape:connector-curvature="0" />
            <path
               inkscape:connector-curvature="0"
               id="path4015"
               d="m 182.89286,567.36218 c 0,12.32143 0,12.32143 0,12.32143"
               style="fill:none;stroke:#000000;stroke-width:1px;stroke-linecap:butt;stroke-linejoin:miter;stroke-opacity:1" />
          </g>
        </g>
        <g
           style="fill:#0088ff;fill-opacity:1;filter:url(#filter9031)"
           transform="matrix(-1,0,0,1,812.66772,117.32914)"
           id="g4017">
          <path
             transform="matrix(-0.54742501,0,0,-0.5732203,454.40393,1054.7408)"
             d="m 279.30719,675.82782 c 0,11.57626 -8.59296,20.96066 -19.1929,20.96066 -10.59995,0 -19.1929,-9.3844 -19.1929,-20.96066 0,-11.57626 8.59295,-20.96066 19.1929,-20.96066 10.59994,0 19.1929,9.3844 19.1929,20.96066 z"
             sodipodi:ry="20.960665"
             sodipodi:rx="19.192898"
             sodipodi:cy="675.82782"
             sodipodi:cx="260.11429"
             id="path4019"
             style="fill:#0088ff;fill-opacity:1;stroke:#000000;stroke-width:0.57099998;stroke-linejoin:round;stroke-miterlimit:4;stroke-opacity:1;stroke-dasharray:none"
             sodipodi:type="arc" />
          <path
             transform="matrix(-0.473723,0,0,-0.49604536,430.98197,995.64663)"
             d="m 253.52738,664.4455 c -0.009,-0.051 0.0583,-0.074 0.097,-0.0696 0.12604,0.0143 0.16644,0.16873 0.13735,0.27267 -0.0666,0.23791 -0.35947,0.30177 -0.566,0.22202 -0.39078,-0.15089 -0.48428,-0.64217 -0.3232,-0.99251 0.27049,-0.5883 1.02639,-0.71768 1.56518,-0.44082 0.83363,0.42836 1.00528,1.52036 0.57501,2.29529 -0.62717,1.12957 -2.13141,1.35006 -3.19293,0.72598 -1.4787,-0.86935 -1.7548,-2.8662 -0.89398,-4.26728 1.15712,-1.88337 3.73079,-2.22205 5.52678,-1.07931 2.3458,1.49257 2.7542,4.73089 1.28225,6.97932 -1.87759,2.86805 -5.87177,3.35352 -8.63225,1.5031 -3.45209,-2.31402 -4.02214,-7.15842 -1.74218,-10.49252 2.80357,-4.09979 8.59557,-4.76211 12.56673,-1.99977 4.81292,3.34786 5.57539,10.1877 2.2762,14.86114 -3.94846,5.59318 -11.93911,6.46382 -17.38176,2.57175 -6.4422,-4.60686 -7.42921,-13.85391 -2.88671,-20.13434 5.32447,-7.36156 15.93604,-8.47327 23.12438,-3.22137 8.35278,6.10268 9.5977,18.18929 3.57601,26.35721 -6.53893,8.86952 -19.20337,10.71506 -28.39016,4.94174"
             sodipodi:t0="0.059999999"
             sodipodi:argument="-10.610819"
             sodipodi:radius="22.394186"
             sodipodi:revolution="5.04"
             sodipodi:expansion="2.3800001"
             sodipodi:cy="664.46362"
             sodipodi:cx="253.54829"
             id="path4021"
             style="fill:#0088ff;fill-opacity:1;stroke:#000000;stroke-width:1px;stroke-linecap:butt;stroke-linejoin:miter;stroke-opacity:1"
             sodipodi:type="spiral" />
        </g>
        <g
           style="fill:#0088ff;fill-opacity:1;filter:url(#filter9023)"
           transform="matrix(1,0,0,-1,189.17631,1560.1511)"
           id="g4023">
          <path
             transform="matrix(-0.54742501,0,0,-0.5732203,401.72448,1109.8951)"
             d="m 279.30719,675.82782 c 0,11.57626 -8.59296,20.96066 -19.1929,20.96066 -10.59995,0 -19.1929,-9.3844 -19.1929,-20.96066 0,-11.57626 8.59295,-20.96066 19.1929,-20.96066 10.59994,0 19.1929,9.3844 19.1929,20.96066 z"
             sodipodi:ry="20.960665"
             sodipodi:rx="19.192898"
             sodipodi:cy="675.82782"
             sodipodi:cx="260.11429"
             id="path4025"
             style="fill:#0088ff;fill-opacity:1;stroke:#000000;stroke-width:0.57099998;stroke-linejoin:round;stroke-miterlimit:4;stroke-opacity:1;stroke-dasharray:none"
             sodipodi:type="arc" />
          <path
             transform="matrix(-0.473723,0,0,-0.49604536,378.30252,1050.801)"
             d="m 253.52738,664.4455 c -0.009,-0.051 0.0583,-0.074 0.097,-0.0696 0.12604,0.0143 0.16644,0.16873 0.13735,0.27267 -0.0666,0.23791 -0.35947,0.30177 -0.566,0.22202 -0.39078,-0.15089 -0.48428,-0.64217 -0.3232,-0.99251 0.27049,-0.5883 1.02639,-0.71768 1.56518,-0.44082 0.83363,0.42836 1.00528,1.52036 0.57501,2.29529 -0.62717,1.12957 -2.13141,1.35006 -3.19293,0.72598 -1.4787,-0.86935 -1.7548,-2.8662 -0.89398,-4.26728 1.15712,-1.88337 3.73079,-2.22205 5.52678,-1.07931 2.3458,1.49257 2.7542,4.73089 1.28225,6.97932 -1.87759,2.86805 -5.87177,3.35352 -8.63225,1.5031 -3.45209,-2.31402 -4.02214,-7.15842 -1.74218,-10.49252 2.80357,-4.09979 8.59557,-4.76211 12.56673,-1.99977 4.81292,3.34786 5.57539,10.1877 2.2762,14.86114 -3.94846,5.59318 -11.93911,6.46382 -17.38176,2.57175 -6.4422,-4.60686 -7.42921,-13.85391 -2.88671,-20.13434 5.32447,-7.36156 15.93604,-8.47327 23.12438,-3.22137 8.35278,6.10268 9.5977,18.18929 3.57601,26.35721 -6.53893,8.86952 -19.20337,10.71506 -28.39016,4.94174"
             sodipodi:t0="0.059999999"
             sodipodi:argument="-10.610819"
             sodipodi:radius="22.394186"
             sodipodi:revolution="5.04"
             sodipodi:expansion="2.3800001"
             sodipodi:cy="664.46362"
             sodipodi:cx="253.54829"
             id="path4027"
             style="fill:#0088ff;fill-opacity:1;stroke:#000000;stroke-width:1px;stroke-linecap:butt;stroke-linejoin:miter;stroke-opacity:1"
             sodipodi:type="spiral" />
        </g>
        <path
           sodipodi:type="arc"
           style="fill:#24bdd0;fill-opacity:1;stroke:#000000;stroke-width:0.57099998;stroke-linejoin:round;stroke-miterlimit:4;stroke-opacity:1;stroke-dasharray:none;filter:url(#filter9015)"
           id="path4029"
           sodipodi:cx="260.11429"
           sodipodi:cy="675.82782"
           sodipodi:rx="19.192898"
           sodipodi:ry="20.960665"
           d="m 279.30719,675.82782 c 0,11.57626 -8.59296,20.96066 -19.1929,20.96066 -10.59995,0 -19.1929,-9.3844 -19.1929,-20.96066 0,-11.57626 8.59295,-20.96066 19.1929,-20.96066 10.59994,0 19.1929,9.3844 19.1929,20.96066 z"
           transform="matrix(-0.85677968,0,0,-0.89715212,671.36836,1342.3923)" />
        <g
           style="fill:#0088ff;fill-opacity:1;filter:url(#filter9007)"
           transform="matrix(-1,0,0,1,608.31386,117.32914)"
           id="g4031">
          <path
             sodipodi:type="arc"
             style="fill:#0088ff;fill-opacity:1;stroke:#000000;stroke-width:0.57099998;stroke-linejoin:round;stroke-miterlimit:4;stroke-opacity:1;stroke-dasharray:none"
             id="path4033"
             sodipodi:cx="260.11429"
             sodipodi:cy="675.82782"
             sodipodi:rx="19.192898"
             sodipodi:ry="20.960665"
             d="m 279.30719,675.82782 c 0,11.57626 -8.59296,20.96066 -19.1929,20.96066 -10.59995,0 -19.1929,-9.3844 -19.1929,-20.96066 0,-11.57626 8.59295,-20.96066 19.1929,-20.96066 10.59994,0 19.1929,9.3844 19.1929,20.96066 z"
             transform="matrix(-0.54742501,0,0,-0.5732203,352.227,1054.7408)" />
          <path
             sodipodi:type="spiral"
             style="fill:#0088ff;fill-opacity:1;stroke:#000000;stroke-width:1px;stroke-linecap:butt;stroke-linejoin:miter;stroke-opacity:1"
             id="path4035"
             sodipodi:cx="253.54829"
             sodipodi:cy="664.46362"
             sodipodi:expansion="2.3800001"
             sodipodi:revolution="5.04"
             sodipodi:radius="22.394186"
             sodipodi:argument="-10.610819"
             sodipodi:t0="0.059999999"
             d="m 253.52738,664.4455 c -0.009,-0.051 0.0583,-0.074 0.097,-0.0696 0.12604,0.0143 0.16644,0.16873 0.13735,0.27267 -0.0666,0.23791 -0.35947,0.30177 -0.566,0.22202 -0.39078,-0.15089 -0.48428,-0.64217 -0.3232,-0.99251 0.27049,-0.5883 1.02639,-0.71768 1.56518,-0.44082 0.83363,0.42836 1.00528,1.52036 0.57501,2.29529 -0.62717,1.12957 -2.13141,1.35006 -3.19293,0.72598 -1.4787,-0.86935 -1.7548,-2.8662 -0.89398,-4.26728 1.15712,-1.88337 3.73079,-2.22205 5.52678,-1.07931 2.3458,1.49257 2.7542,4.73089 1.28225,6.97932 -1.87759,2.86805 -5.87177,3.35352 -8.63225,1.5031 -3.45209,-2.31402 -4.02214,-7.15842 -1.74218,-10.49252 2.80357,-4.09979 8.59557,-4.76211 12.56673,-1.99977 4.81292,3.34786 5.57539,10.1877 2.2762,14.86114 -3.94846,5.59318 -11.93911,6.46382 -17.38176,2.57175 -6.4422,-4.60686 -7.42921,-13.85391 -2.88671,-20.13434 5.32447,-7.36156 15.93604,-8.47327 23.12438,-3.22137 8.35278,6.10268 9.5977,18.18929 3.57601,26.35721 -6.53893,8.86952 -19.20337,10.71506 -28.39016,4.94174"
             transform="matrix(-0.473723,0,0,-0.49604536,328.80504,995.64667)" />
        </g>
        <path
           transform="matrix(-1.1555804,0,0,-1.1555804,749.0907,1565.6451)"
           d="m 279.30719,675.82782 c 0,11.57626 -8.59296,20.96066 -19.1929,20.96066 -10.59995,0 -19.1929,-9.3844 -19.1929,-20.96066 0,-11.57626 8.59295,-20.96066 19.1929,-20.96066 10.59994,0 19.1929,9.3844 19.1929,20.96066 z"
           sodipodi:ry="20.960665"
           sodipodi:rx="19.192898"
           sodipodi:cy="675.82782"
           sodipodi:cx="260.11429"
           id="path4037"
           style="opacity:0.81415926;fill:#1342ff;fill-opacity:1;stroke:#000000;stroke-width:0.57099998;stroke-linejoin:round;stroke-miterlimit:4;stroke-opacity:1;stroke-dasharray:none;filter:url(#filter8999)"
           sodipodi:type="arc" />
        <path
           transform="matrix(-1,0,0,-1,699.64838,1446.5146)"
           d="m 253.52738,664.4455 c -0.009,-0.051 0.0583,-0.074 0.097,-0.0696 0.12604,0.0143 0.16644,0.16873 0.13735,0.27267 -0.0666,0.23791 -0.35947,0.30177 -0.566,0.22202 -0.39078,-0.15089 -0.48428,-0.64217 -0.3232,-0.99251 0.27049,-0.5883 1.02639,-0.71768 1.56518,-0.44082 0.83363,0.42836 1.00528,1.52036 0.57501,2.29529 -0.62717,1.12957 -2.13141,1.35006 -3.19293,0.72598 -1.4787,-0.86935 -1.7548,-2.8662 -0.89398,-4.26728 1.15712,-1.88337 3.73079,-2.22205 5.52678,-1.07931 2.3458,1.49257 2.7542,4.73089 1.28225,6.97932 -1.87759,2.86805 -5.87177,3.35352 -8.63225,1.5031 -3.45209,-2.31402 -4.02214,-7.15842 -1.74218,-10.49252 2.80357,-4.09979 8.59557,-4.76211 12.56673,-1.99977 4.81292,3.34786 5.57539,10.1877 2.2762,14.86114 -3.94846,5.59318 -11.93911,6.46382 -17.38176,2.57175 -6.4422,-4.60686 -7.42921,-13.85391 -2.88671,-20.13434 5.32447,-7.36156 15.93604,-8.47327 23.12438,-3.22137 8.35278,6.10268 9.5977,18.18929 3.57601,26.35721 -6.53893,8.86952 -19.20337,10.71506 -28.39016,4.94174"
           sodipodi:t0="0.059999999"
           sodipodi:argument="-10.610819"
           sodipodi:radius="22.394186"
           sodipodi:revolution="5.04"
           sodipodi:expansion="2.3800001"
           sodipodi:cy="664.46362"
           sodipodi:cx="253.54829"
           id="path4039"
           style="fill:#1156ff;fill-opacity:1;stroke:#000000;stroke-width:1px;stroke-linecap:butt;stroke-linejoin:miter;stroke-opacity:1;filter:url(#filter8991)"
           sodipodi:type="spiral" />
      </g>
    </g>
  </g>
</svg>
