<?xml version="1.0" encoding="UTF-8" standalone="no"?>
<!-- Created with Inkscape (http://www.inkscape.org/) -->

<svg
   xmlns:dc="http://purl.org/dc/elements/1.1/"
   xmlns:cc="http://creativecommons.org/ns#"
   xmlns:rdf="http://www.w3.org/1999/02/22-rdf-syntax-ns#"
   xmlns:svg="http://www.w3.org/2000/svg"
   xmlns="http://www.w3.org/2000/svg"
   xmlns:sodipodi="http://sodipodi.sourceforge.net/DTD/sodipodi-0.dtd"
   xmlns:inkscape="http://www.inkscape.org/namespaces/inkscape"
   width="744.09448819"
   height="1052.3622047"
   id="svg9135"
   version="1.1"
   inkscape:version="0.48.4 r9939"
   sodipodi:docname="New document 2">
  <defs
     id="defs9137" />
  <sodipodi:namedview
     id="base"
     pagecolor="#ffffff"
     bordercolor="#666666"
     borderopacity="1.0"
     inkscape:pageopacity="0.0"
     inkscape:pageshadow="2"
     inkscape:zoom="1.979899"
     inkscape:cx="257.50593"
     inkscape:cy="451.999"
     inkscape:document-units="px"
     inkscape:current-layer="layer1"
     showgrid="false"
     inkscape:window-width="1049"
     inkscape:window-height="1001"
     inkscape:window-x="856"
     inkscape:window-y="0"
     inkscape:window-maximized="0" />
  <metadata
     id="metadata9140">
    <rdf:RDF>
      <cc:Work
         rdf:about="">
        <dc:format>image/svg+xml</dc:format>
        <dc:type
           rdf:resource="http://purl.org/dc/dcmitype/StillImage" />
        <dc:title></dc:title>
      </cc:Work>
    </rdf:RDF>
  </metadata>
  <g
     inkscape:label="Layer 1"
     inkscape:groupmode="layer"
     id="layer1">
    <path
       sodipodi:type="arc"
       style="fill:#24bdd0;fill-opacity:1;stroke:#000000;stroke-width:0.57099998;stroke-linejoin:round;stroke-miterlimit:4;stroke-opacity:1;stroke-dasharray:none"
       id="path9143"
       sodipodi:cx="209.28572"
       sodipodi:cy="640.2193"
       sodipodi:rx="60.714287"
       sodipodi:ry="65.714287"
       d="m 270.00001,640.2193 a 60.714287,65.714287 0 1 1 -121.42858,0 60.714287,65.714287 0 1 1 121.42858,0 z" />
    <path
       style="fill:#24bdd0;fill-opacity:1;stroke:#000000;stroke-width:0.57099998;stroke-linejoin:round;stroke-miterlimit:4;stroke-opacity:1"
       d="m 253.57144,617.71931 c 0,25.44455 -20.62688,46.07143 -46.07143,46.07143 -25.44455,0 -46.07143,-20.62688 -46.07143,-46.07143 0,-25.44454 24.19831,-102.5 49.64286,-102.5 25.44455,0 42.5,77.05546 42.5,102.5 z"
       id="path9147"
       inkscape:connector-curvature="0"
       sodipodi:nodetypes="sssss" />
    <path
       sodipodi:type="arc"
       style="fill:#24bdd0;fill-opacity:1;stroke:#000000;stroke-width:0.57099998;stroke-linejoin:round;stroke-miterlimit:4;stroke-opacity:1;stroke-dasharray:none"
       id="path9152"
       sodipodi:cx="220.71834"
       sodipodi:cy="647.29102"
       sodipodi:rx="37.880722"
       sodipodi:ry="37.880722"
       d="m 258.59906,647.29102 a 37.880722,37.880722 0 1 1 -75.76144,0 37.880722,37.880722 0 1 1 75.76144,0 z"
       transform="translate(-11.432617,-7.0717163)" />
    <path
       style="fill:#24bdd0;fill-opacity:1;stroke:#000000;stroke-width:0.4125106;stroke-linejoin:round;stroke-miterlimit:4;stroke-opacity:1"
       d="m 174.78029,588.84683 c 0.53225,4.08077 -3.41713,14.54769 -6.72784,14.97269 -3.31071,0.425 -4.72909,-9.35286 -5.26132,-13.43363 -0.53225,-4.08077 -8.24705,-21.84561 -4.93635,-22.27061 3.31072,-0.42501 16.39327,16.65078 16.92551,20.73155 z"
       id="path9154"
       inkscape:connector-curvature="0"
       sodipodi:nodetypes="sssss"
       inkscape:transform-center-x="-3.2970307"
       inkscape:transform-center-y="-27.984781" />
    <path
       style="fill:#24bdd0;fill-opacity:1;stroke:#000000;stroke-width:0.55339795;stroke-linejoin:round;stroke-miterlimit:4;stroke-opacity:1"
       d="m 392.28426,561.38652 c 0.68902,5.67312 -4.42372,20.22433 -8.70966,20.81516 -4.28595,0.59084 -6.12213,-13.00242 -6.81115,-18.67554 -0.68902,-5.67312 -10.67637,-30.36994 -6.39043,-30.96078 4.28595,-0.59084 21.22221,23.14804 21.91124,28.82116 z"
       id="path9154-1"
       inkscape:connector-curvature="0"
       sodipodi:nodetypes="sssss"
       inkscape:transform-center-x="-4.2682375"
       inkscape:transform-center-y="-38.904665" />
    <path
       style="fill:#24bdd0;fill-opacity:1;stroke:#000000;stroke-width:0.55339795;stroke-linejoin:round;stroke-miterlimit:4;stroke-opacity:1"
       d="m 392.28426,561.38652 c 0.68902,5.67312 -4.42372,20.22433 -8.70966,20.81516 -4.28595,0.59084 -6.12213,-13.00242 -6.81115,-18.67554 -0.68902,-5.67312 -10.67637,-30.36994 -6.39043,-30.96078 4.28595,-0.59084 21.22221,23.14804 21.91124,28.82116 z"
       id="path9154-7"
       inkscape:connector-curvature="0"
       sodipodi:nodetypes="sssss"
       inkscape:transform-center-x="-4.2682375"
       inkscape:transform-center-y="-38.904665" />
    <path
       style="fill:#24bdd0;fill-opacity:1;stroke:#000000;stroke-width:0.55339795;stroke-linejoin:round;stroke-miterlimit:4;stroke-opacity:1"
       d="m 392.28426,561.38652 c 0.68902,5.67312 -4.42372,20.22433 -8.70966,20.81516 -4.28595,0.59084 -6.12213,-13.00242 -6.81115,-18.67554 -0.68902,-5.67312 -10.67637,-30.36994 -6.39043,-30.96078 4.28595,-0.59084 21.22221,23.14804 21.91124,28.82116 z"
       id="path9154-4"
       inkscape:connector-curvature="0"
       sodipodi:nodetypes="sssss"
       inkscape:transform-center-x="-4.2682375"
       inkscape:transform-center-y="-38.904665" />
    <path
       style="fill:#24bdd0;fill-opacity:1;stroke:#000000;stroke-width:0.55339795;stroke-linejoin:round;stroke-miterlimit:4;stroke-opacity:1"
       d="m 392.28426,561.38652 c 0.68902,5.67312 -4.42372,20.22433 -8.70966,20.81516 -4.28595,0.59084 -6.12213,-13.00242 -6.81115,-18.67554 -0.68902,-5.67312 -10.67637,-30.36994 -6.39043,-30.96078 4.28595,-0.59084 21.22221,23.14804 21.91124,28.82116 z"
       id="path9154-0"
       inkscape:connector-curvature="0"
       sodipodi:nodetypes="sssss"
       inkscape:transform-center-x="-4.2682375"
       inkscape:transform-center-y="-38.904665" />
    <path
       style="fill:#24bdd0;fill-opacity:1;stroke:#000000;stroke-width:0.55339795;stroke-linejoin:round;stroke-miterlimit:4;stroke-opacity:1"
       d="m 371.07106,611.89415 c 0.68902,5.67312 -4.42372,20.22433 -8.70966,20.81516 -4.28595,0.59084 -6.12213,-13.00242 -6.81115,-18.67554 -0.68902,-5.67312 -10.67637,-30.36994 -6.39043,-30.96078 4.28595,-0.59084 21.22221,23.14804 21.91124,28.82116 z"
       id="path9154-9"
       inkscape:connector-curvature="0"
       sodipodi:nodetypes="sssss"
       inkscape:transform-center-x="-4.2682375"
       inkscape:transform-center-y="-38.904665" />
    <path
       style="fill:#24bdd0;fill-opacity:1;stroke:#000000;stroke-width:0.55339795;stroke-linejoin:round;stroke-miterlimit:4;stroke-opacity:1"
       d="m 371.07106,611.38907 c 0.68902,5.67312 -4.42372,20.22433 -8.70966,20.81516 -4.28595,0.59084 -6.12213,-13.00242 -6.81115,-18.67554 -0.68902,-5.67312 -10.67637,-30.36994 -6.39043,-30.96078 4.28595,-0.59084 21.22221,23.14804 21.91124,28.82116 z"
       id="path9154-48"
       inkscape:connector-curvature="0"
       sodipodi:nodetypes="sssss"
       inkscape:transform-center-x="-4.2682375"
       inkscape:transform-center-y="-38.904665" />
    <path
       style="fill:#24bdd0;fill-opacity:1;stroke:#000000;stroke-width:0.41886014;stroke-linejoin:round;stroke-miterlimit:4;stroke-opacity:1"
       d="m 275.65088,675.13299 c -1.37736,4.46738 -10.23306,11.81048 -13.17909,11.08334 -2.94604,-0.72713 8.52137,-12.89653 9.89872,-17.3639 1.37736,-4.46738 -0.61932,5.61755 3.37307,-24.49686 0.3988,-3.00813 1.28465,26.31004 -0.0927,30.77742 z"
       id="path9154-8"
       inkscape:connector-curvature="0"
       sodipodi:nodetypes="sssss"
       inkscape:transform-center-x="-10.292929"
       inkscape:transform-center-y="-30.354633" />
    <path
       style="fill:#24bdd0;fill-opacity:1;stroke:#000000;stroke-width:0.39167669;stroke-linejoin:round;stroke-miterlimit:4;stroke-opacity:1"
       d="m 190.69675,507.50823 c 1.6444,-4.19019 9.75084,-12.9565 12.38508,-12.13797 2.63424,0.81854 -1.20121,10.91191 -2.84562,15.10209 -1.64442,4.19021 -4.85353,24.44373 -7.48777,23.6252 -2.63424,-0.81853 -3.6961,-22.39911 -2.05169,-26.58932 z"
       id="path9154-2"
       inkscape:connector-curvature="0"
       sodipodi:nodetypes="sssss"
       inkscape:transform-center-y="9.1214397" />
    <path
       style="fill:#24bdd0;fill-opacity:1;stroke:#000000;stroke-width:0.39167669;stroke-linejoin:round;stroke-miterlimit:4;stroke-opacity:1"
       d="m 175.02642,533.29191 c -0.13044,-4.49941 3.88913,-15.74244 6.63337,-16.02245 2.74423,-0.28 3.17396,10.50898 3.30438,15.00839 0.13043,4.49944 5.1205,24.3892 2.37627,24.66921 -2.74423,0.28002 -12.18359,-19.15571 -12.31402,-23.65515 z"
       id="path9233"
       inkscape:connector-curvature="0"
       sodipodi:nodetypes="sssss"
       inkscape:transform-center-y="8.0232976"
       inkscape:transform-center-x="-1.5670287" />
    <path
       sodipodi:nodetypes="sssss"
       inkscape:connector-curvature="0"
       id="path9235"
       d="m 154.03118,599.79446 c -0.99271,2.41559 -5.06173,7.2374 -6.1296,6.61867 -1.06787,-0.61873 1.26976,-6.44369 2.26248,-8.85928 0.99272,-2.41561 3.76772,-14.32703 4.83559,-13.70829 1.06787,0.61872 0.0242,13.53328 -0.96847,15.9489 z"
       style="fill:#24bdd0;fill-opacity:1;stroke:#000000;stroke-width:0.19890675;stroke-linejoin:round;stroke-miterlimit:4;stroke-opacity:1"
       inkscape:transform-center-x="3.4265432"
       inkscape:transform-center-y="-0.40242435" />
    <path
       inkscape:transform-center-y="-27.984783"
       inkscape:transform-center-x="3.2970348"
       sodipodi:nodetypes="sssss"
       inkscape:connector-curvature="0"
       id="path9237"
       d="m 244.28752,592.11662 c -0.53223,4.08077 3.41714,14.54769 6.72785,14.97269 3.31072,0.425 4.72909,-9.35286 5.26133,-13.43363 0.53224,-4.08077 8.24705,-21.84561 4.93633,-22.27061 -3.31071,-0.42501 -16.39326,16.65078 -16.92551,20.73155 z"
       style="fill:#24bdd0;fill-opacity:1;stroke:#000000;stroke-width:0.4125106;stroke-linejoin:round;stroke-miterlimit:4;stroke-opacity:1" />
    <path
       inkscape:transform-center-y="9.1214397"
       sodipodi:nodetypes="sssss"
       inkscape:connector-curvature="0"
       id="path9239"
       d="m 231.34676,507.2557 c -1.6444,-4.19019 -9.75084,-12.9565 -12.38508,-12.13797 -2.63424,0.81854 1.20121,10.91191 2.84562,15.10209 1.64442,4.19021 4.85353,24.44373 7.48777,23.6252 2.63424,-0.81853 3.6961,-22.39911 2.05169,-26.58932 z"
       style="fill:#24bdd0;fill-opacity:1;stroke:#000000;stroke-width:0.39167669;stroke-linejoin:round;stroke-miterlimit:4;stroke-opacity:1" />
    <path
       inkscape:transform-center-y="30.175197"
       inkscape:transform-center-x="3.1780434"
       sodipodi:nodetypes="sssss"
       inkscape:connector-curvature="0"
       id="path9241"
       d="m 255.61695,561.18965 c 1.31403,-4.2985 -0.64351,-16.27034 -3.88127,-17.31749 -3.23777,-1.04716 -6.52972,9.2269 -7.84374,13.52538 -1.31402,4.2985 -12.44576,22.04985 -9.208,23.097 3.23777,1.04716 19.61898,-15.0064 20.93301,-19.30489 z"
       style="fill:#24bdd0;fill-opacity:1;stroke:#000000;stroke-width:0.43526253;stroke-linejoin:round;stroke-miterlimit:4;stroke-opacity:1" />
    <path
       inkscape:transform-center-x="1.5670251"
       inkscape:transform-center-y="8.0232976"
       sodipodi:nodetypes="sssss"
       inkscape:connector-curvature="0"
       id="path9243"
       d="m 244.74425,537.8376 c 0.13044,-4.49941 -3.88913,-15.74244 -6.63337,-16.02245 -2.74423,-0.28 -3.17396,10.50898 -3.30438,15.00839 -0.13043,4.49944 -5.1205,24.3892 -2.37627,24.66921 2.74423,0.28002 12.18359,-19.15571 12.31402,-23.65515 z"
       style="fill:#24bdd0;fill-opacity:1;stroke:#000000;stroke-width:0.39167669;stroke-linejoin:round;stroke-miterlimit:4;stroke-opacity:1" />
    <path
       style="fill:#24bdd0;fill-opacity:1;stroke:#000000;stroke-width:0.41886014;stroke-linejoin:round;stroke-miterlimit:4;stroke-opacity:1"
       d="m 144.06578,674.17089 c 1.67226,4.36557 10.99803,11.10163 13.889,10.17961 2.89098,-0.92201 -9.36259,-12.29944 -11.03485,-16.66498 -1.67227,-4.36556 0.99263,5.56373 -4.99953,-24.21733 -0.59858,-2.97482 0.47312,26.33713 2.14538,30.7027 z"
       id="path9154-8-5"
       inkscape:connector-curvature="0"
       sodipodi:nodetypes="sssss"
       inkscape:transform-center-x="-2.0578741"
       inkscape:transform-center-y="-6.4069661" />
    <path
       style="fill:#24bdd0;fill-opacity:1;stroke:#000000;stroke-width:0.41886014;stroke-linejoin:round;stroke-miterlimit:4;stroke-opacity:1"
       d="m 132.84493,638.07845 c -1.00811,4.56491 3.06703,15.32307 5.98792,16.1454 2.9209,0.82234 -1.0423,-15.42234 -0.0342,-19.98722 1.00808,-4.5649 -2.23519,5.1908 9.16246,-22.96788 1.13847,-2.81279 -14.10808,22.2448 -15.11617,26.8097 z"
       id="path9154-8-5-1"
       inkscape:connector-curvature="0"
       sodipodi:nodetypes="sssss"
       inkscape:transform-center-x="-2.0557598"
       inkscape:transform-center-y="-4.3318592" />
    <path
       style="fill:#24bdd0;fill-opacity:1;stroke:#000000;stroke-width:0.41886014;stroke-linejoin:round;stroke-miterlimit:4;stroke-opacity:1"
       d="m 286.43868,638.86048 c 1.00811,4.56491 -3.06703,15.32307 -5.98792,16.1454 -2.9209,0.82234 1.0423,-15.42234 0.0342,-19.98722 -1.00808,-4.5649 2.23519,5.1908 -9.16246,-22.96788 -1.13847,-2.81279 14.10808,22.2448 15.11617,26.8097 z"
       id="path9154-8-5-1-7"
       inkscape:connector-curvature="0"
       sodipodi:nodetypes="sssss"
       inkscape:transform-center-x="2.0557567"
       inkscape:transform-center-y="-4.3318592" />
    <path
       inkscape:transform-center-y="-3.6903503"
       sodipodi:nodetypes="sssss"
       inkscape:connector-curvature="0"
       id="path9299"
       d="m 242.63537,710.35566 c -3.58877,2.99588 -15.01536,4.32923 -17.0897,2.11451 -2.07436,-2.21469 14.17162,-6.17246 17.76038,-9.16834 3.58877,-2.99589 -3.57969,4.37336 16.17401,-18.70495 1.9732,-2.3053 -13.25594,22.76288 -16.84469,25.75878 z"
       style="fill:#24bdd0;fill-opacity:1;stroke:#000000;stroke-width:0.41886014;stroke-linejoin:round;stroke-miterlimit:4;stroke-opacity:1"
       inkscape:transform-center-x="-2.6036514" />
    <path
       inkscape:transform-center-x="2.6036466"
       style="fill:#24bdd0;fill-opacity:1;stroke:#000000;stroke-width:0.41886014;stroke-linejoin:round;stroke-miterlimit:4;stroke-opacity:1"
       d="m 178.09805,710.35566 c 3.58877,2.99588 15.01536,4.32923 17.0897,2.11451 2.07436,-2.21469 -14.17162,-6.17246 -17.76038,-9.16834 -3.58877,-2.99589 3.57969,4.37336 -16.17401,-18.70495 -1.9732,-2.3053 13.25594,22.76288 16.84469,25.75878 z"
       id="path9301"
       inkscape:connector-curvature="0"
       sodipodi:nodetypes="sssss"
       inkscape:transform-center-y="-3.6903543" />
    <path
       style="fill:#24bdd0;fill-opacity:1;stroke:#000000;stroke-width:0.11320876;stroke-linejoin:round;stroke-miterlimit:4;stroke-opacity:1"
       d="m 215.2289,704.35588 c 0,7.11236 -2.9007,12.87806 -6.4789,12.87806 -3.57819,0 -6.4789,-5.7657 -6.4789,-12.87806 0,-7.11235 3.40295,-28.65117 6.98114,-28.65117 3.5782,0 5.97666,21.53882 5.97666,28.65117 z"
       id="path9147-1"
       inkscape:connector-curvature="0"
       sodipodi:nodetypes="sssss" />
    <path
       style="fill:#24bdd0;fill-opacity:1;stroke:#000000;stroke-width:0.08441448;stroke-linejoin:round;stroke-miterlimit:4;stroke-opacity:1"
       d="m 214.83922,505.99717 c 0,5.89157 -1.94697,10.66761 -4.34868,10.66761 -2.40171,0 -4.34869,-4.77604 -4.34869,-10.66761 0,-5.89156 2.28409,-23.73338 4.6858,-23.73338 2.40171,0 4.01157,17.84182 4.01157,23.73338 z"
       id="path9147-1-1"
       inkscape:connector-curvature="0"
       sodipodi:nodetypes="sssss" />
    <path
       inkscape:transform-center-y="-0.40242435"
       inkscape:transform-center-x="-3.4265422"
       style="fill:#24bdd0;fill-opacity:1;stroke:#000000;stroke-width:0.19890675;stroke-linejoin:round;stroke-miterlimit:4;stroke-opacity:1"
       d="m 265.83178,599.79446 c 0.99271,2.41559 5.06173,7.2374 6.1296,6.61867 1.06787,-0.61873 -1.26976,-6.44369 -2.26248,-8.85928 -0.99272,-2.41561 -3.76772,-14.32703 -4.83559,-13.70829 -1.06787,0.61872 -0.0242,13.53328 0.96847,15.9489 z"
       id="path9357"
       inkscape:connector-curvature="0"
       sodipodi:nodetypes="sssss" />
    <path
       style="fill:#24bdd0;fill-opacity:1;stroke:#000000;stroke-width:0.43526253;stroke-linejoin:round;stroke-miterlimit:4;stroke-opacity:1"
       d="m 163.79544,561.18965 c -1.31403,-4.2985 0.64351,-16.27034 3.88127,-17.31749 3.23777,-1.04716 6.52972,9.2269 7.84374,13.52538 1.31402,4.2985 12.44576,22.04985 9.208,23.097 -3.23777,1.04716 -19.61898,-15.0064 -20.93301,-19.30489 z"
       id="path9359"
       inkscape:connector-curvature="0"
       sodipodi:nodetypes="sssss"
       inkscape:transform-center-x="-3.1780444"
       inkscape:transform-center-y="30.175197" />
  </g>
</svg>
