<?xml version="1.0" encoding="UTF-8" standalone="no"?>
<!-- Created with Inkscape (http://www.inkscape.org/) -->

<svg
   xmlns:dc="http://purl.org/dc/elements/1.1/"
   xmlns:cc="http://creativecommons.org/ns#"
   xmlns:rdf="http://www.w3.org/1999/02/22-rdf-syntax-ns#"
   xmlns:svg="http://www.w3.org/2000/svg"
   xmlns="http://www.w3.org/2000/svg"
   xmlns:sodipodi="http://sodipodi.sourceforge.net/DTD/sodipodi-0.dtd"
   xmlns:inkscape="http://www.inkscape.org/namespaces/inkscape"
   width="1052.3622"
   height="744.09448"
   id="svg2985"
   version="1.1"
   inkscape:version="0.48.5 r10040"
   sodipodi:docname="mockup01.svg">
  <defs
     id="defs2987">
    <inkscape:perspective
       sodipodi:type="inkscape:persp3d"
       inkscape:vp_x="0 : 376.27128 : 1"
       inkscape:vp_y="0 : 1111.4177 : 0"
       inkscape:vp_z="1052.3622 : 376.27128 : 1"
       inkscape:persp3d-origin="526.18109 : 238.43798 : 1"
       id="perspective5792" />
    <pattern
       inkscape:stockid="Stripes 1:1"
       id="Strips1_1"
       patternTransform="translate(0,0) scale(10,10)"
       height="1"
       width="2"
       patternUnits="userSpaceOnUse"
       inkscape:collect="always">
      <rect
         id="rect4568"
         height="2"
         width="1"
         y="-0.5"
         x="0"
         style="fill:black;stroke:none" />
    </pattern>
    <linearGradient
       id="SVGID_1_"
       gradientUnits="userSpaceOnUse"
       x1="324.46881"
       y1="11.2485"
       x2="255.70551"
       y2="103.2204">
      <stop
         offset="0"
         style="stop-color:#FFFFFF"
         id="stop5458" />
      <stop
         offset="0.4835"
         style="stop-color:#FFF200"
         id="stop5460" />
      <stop
         offset="1"
         style="stop-color:#ED1C24"
         id="stop5462" />
    </linearGradient>
    <linearGradient
       id="SVGID_2_"
       gradientUnits="userSpaceOnUse"
       x1="398.1221"
       y1="50.902802"
       x2="289.96811"
       y2="168.3773">
      <stop
         offset="0"
         style="stop-color:#FFFFFF"
         id="stop5477" />
      <stop
         offset="0.4835"
         style="stop-color:#FFF200"
         id="stop5479" />
      <stop
         offset="1"
         style="stop-color:#ED1C24"
         id="stop5481" />
    </linearGradient>
    <linearGradient
       id="SVGID_3_"
       gradientUnits="userSpaceOnUse"
       x1="328.1748"
       y1="160.1606"
       x2="240.9735"
       y2="195.1925">
      <stop
         offset="0"
         style="stop-color:#FFFFFF"
         id="stop5486" />
      <stop
         offset="0.4835"
         style="stop-color:#FFF200"
         id="stop5488" />
      <stop
         offset="1"
         style="stop-color:#ED1C24"
         id="stop5490" />
    </linearGradient>
    <linearGradient
       id="SVGID_4_"
       gradientUnits="userSpaceOnUse"
       x1="317.95609"
       y1="70.477501"
       x2="159.0531"
       y2="177.9707">
      <stop
         offset="0"
         style="stop-color:#FFFFFF"
         id="stop5495" />
      <stop
         offset="0.4835"
         style="stop-color:#FFF200"
         id="stop5497" />
      <stop
         offset="1"
         style="stop-color:#ED1C24"
         id="stop5499" />
    </linearGradient>
    <linearGradient
       id="SVGID_5_"
       gradientUnits="userSpaceOnUse"
       x1="164.7256"
       y1="64.575203"
       x2="78.826797"
       y2="119.1571">
      <stop
         offset="0"
         style="stop-color:#FFFFFF"
         id="stop5504" />
      <stop
         offset="0.4835"
         style="stop-color:#FFF200"
         id="stop5506" />
      <stop
         offset="1"
         style="stop-color:#ED1C24"
         id="stop5508" />
    </linearGradient>
    <linearGradient
       id="SVGID_6_"
       gradientUnits="userSpaceOnUse"
       x1="286.48441"
       y1="104.0166"
       x2="75.407402"
       y2="278.9805">
      <stop
         offset="0"
         style="stop-color:#FFFFFF"
         id="stop5513" />
      <stop
         offset="0.4835"
         style="stop-color:#FFF200"
         id="stop5515" />
      <stop
         offset="1"
         style="stop-color:#ED1C24"
         id="stop5517" />
    </linearGradient>
    <linearGradient
       id="SVGID_7_"
       gradientUnits="userSpaceOnUse"
       x1="374.7988"
       y1="2.2056"
       x2="309.32861"
       y2="89.773102">
      <stop
         offset="0"
         style="stop-color:#FFFFFF"
         id="stop5522" />
      <stop
         offset="0.4835"
         style="stop-color:#FFF200"
         id="stop5524" />
      <stop
         offset="1"
         style="stop-color:#ED1C24"
         id="stop5526" />
    </linearGradient>
  </defs>
  <sodipodi:namedview
     id="base"
     pagecolor="#ffffff"
     bordercolor="#666666"
     borderopacity="1.0"
     inkscape:pageopacity="0.0"
     inkscape:pageshadow="2"
     inkscape:zoom="1"
     inkscape:cx="351.4814"
     inkscape:cy="406.98086"
     inkscape:document-units="px"
     inkscape:current-layer="layer2"
     showgrid="false"
     inkscape:window-width="1280"
     inkscape:window-height="738"
     inkscape:window-x="-8"
     inkscape:window-y="-8"
     inkscape:window-maximized="1" />
  <metadata
     id="metadata2990">
    <rdf:RDF>
      <cc:Work
         rdf:about="">
        <dc:format>image/svg+xml</dc:format>
        <dc:type
           rdf:resource="http://purl.org/dc/dcmitype/StillImage" />
        <dc:title />
      </cc:Work>
    </rdf:RDF>
  </metadata>
  <g
     inkscape:label="Layer 1"
     inkscape:groupmode="layer"
     id="layer1"
     transform="translate(0,-308.2677)"
     style="display:inline">
    <path
       style="fill:#000000"
       d="m 257.64437,664.00747 0,-239.5 298.5,0 298.5,0 0,239.5 0,239.50003 -298.5,0 -298.5,0 0,-239.50003 z"
       id="path3017"
       inkscape:connector-curvature="0" />
    <path
       style="fill:#4d4d4d"
       d="m 282.64437,607.00747 0,-156.5 215.5,0 215.5,0 0,156.5 0,156.5 -215.5,0 -215.5,0 0,-156.5 z"
       id="path3021"
       inkscape:connector-curvature="0" />
    <rect
       style="fill:#808080"
       id="rect3024"
       width="547.36395"
       height="102"
       x="283"
       y="783.36218" />
    <rect
       style="fill:#b3b3b3"
       id="rect3026"
       width="98"
       height="310"
       x="732"
       y="451.36218" />
    <path
       sodipodi:type="star"
       style="fill:#ffff00;fill-rule:evenodd;stroke:#000000;stroke-width:1px;stroke-linecap:butt;stroke-linejoin:miter;stroke-opacity:1"
       id="path6285"
       sodipodi:sides="5"
       sodipodi:cx="900.854"
       sodipodi:cy="420.94669"
       sodipodi:r1="5.8309517"
       sodipodi:r2="5.3819966"
       sodipodi:arg1="-1.3258177"
       sodipodi:arg2="-0.69749913"
       inkscape:flatsided="true"
       inkscape:rounded="0"
       inkscape:randomized="0"
       d="m 902.26822,415.28983 4.40279,5.25379 -3.63611,5.81081 -6.65003,-1.66251 -0.47384,-6.8383 z"
       transform="translate(0,308.2677)"
       inkscape:transform-center-x="-0.22394061"
       inkscape:transform-center-y="-0.12455457" />
    <path
       sodipodi:type="star"
       style="fill:#ffff00;fill-rule:evenodd;stroke:#000000;stroke-width:1px;stroke-linecap:butt;stroke-linejoin:miter;stroke-opacity:1"
       id="path6287"
       sodipodi:sides="5"
       sodipodi:cx="1004.0916"
       sodipodi:cy="362.96393"
       sodipodi:r1="41.593269"
       sodipodi:r2="33.649658"
       sodipodi:arg1="2.1870933"
       sodipodi:arg2="2.8154118"
       inkscape:flatsided="true"
       inkscape:rounded="0"
       inkscape:randomized="0"
       d="m 980.04998,396.90505 -15.66757,-46.31769 39.20919,-29.2137 39.9002,28.26264 -14.5495,46.68096 z"
       transform="translate(-49.497473,466.65961)"
       inkscape:transform-center-x="0.15451014"
       inkscape:transform-center-y="-3.8245688" />
    <path
       sodipodi:type="star"
       style="fill:#0000ff;fill-rule:evenodd;stroke:#000000;stroke-width:1px;stroke-linecap:butt;stroke-linejoin:miter;stroke-opacity:1"
       id="path6289"
       sodipodi:sides="5"
       sodipodi:cx="919.94592"
       sodipodi:cy="312.05225"
       sodipodi:r1="71.021126"
       sodipodi:r2="57.457294"
       sodipodi:arg1="0.95517644"
       sodipodi:arg2="1.583495"
       inkscape:flatsided="true"
       inkscape:rounded="0"
       inkscape:randomized="0"
       d="m 960.95812,370.035 -83.48361,-1.06018 -24.78956,-79.72525 68.16282,-48.21272 66.9165,49.92814 z"
       transform="matrix(0.70898486,-0.01156161,0.01124862,0.68979145,-92.799803,629.70532)"
       inkscape:transform-center-x="0.049264671"
       inkscape:transform-center-y="-4.6202528" />
    <path
       inkscape:transform-center-y="-3.9269329"
       inkscape:transform-center-x="0.040235704"
       transform="matrix(0.57900622,-0.00982665,0.0091864,0.58627979,27.054448,660.77762)"
       d="m 960.95812,370.035 -83.48361,-1.06018 -24.78956,-79.72525 68.16282,-48.21272 66.9165,49.92814 z"
       inkscape:randomized="0"
       inkscape:rounded="0"
       inkscape:flatsided="true"
       sodipodi:arg2="1.583495"
       sodipodi:arg1="0.95517644"
       sodipodi:r2="57.457294"
       sodipodi:r1="71.021126"
       sodipodi:cy="312.05225"
       sodipodi:cx="919.94592"
       sodipodi:sides="5"
       id="path6291"
       style="fill:#006680;fill-rule:evenodd;stroke:#000000;stroke-width:1px;stroke-linecap:butt;stroke-linejoin:miter;stroke-opacity:1"
       sodipodi:type="star" />
  </g>
  <g
     inkscape:groupmode="layer"
     id="layer2"
     inkscape:label="Layer"
     transform="translate(0,-308.2677)"
     style="display:inline">
    <path
       sodipodi:type="star"
       style="fill:#242d2d;fill-opacity:0.19047618;stroke:url(#Strips1_1);stroke-width:0.99937689;stroke-miterlimit:4;stroke-opacity:1;stroke-dasharray:none"
       id="path3799"
       sodipodi:sides="5"
       sodipodi:cx="141.42136"
       sodipodi:cy="222.24968"
       sodipodi:r1="77.514519"
       sodipodi:r2="38.757256"
       sodipodi:arg1="0.62343081"
       sodipodi:arg2="1.2517493"
       inkscape:flatsided="false"
       inkscape:rounded="0"
       inkscape:randomized="0"
       d="m 204.35386,267.50452 -50.77583,-8.45348 -35.74937,37.03552 -7.65086,-50.90295 -46.270037,-22.55506 46.047337,-23.00629 7.15291,-50.97531 36.10969,36.68429 50.69078,-8.94942 -23.73033,45.67842 z"
       transform="matrix(0.59057031,0.1863636,-0.17550341,0.49738401,883.67269,852.70903)"
       inkscape:transform-center-x="0.44536117"
       inkscape:transform-center-y="-3.4513001" />
    <path
       sodipodi:type="arc"
       style="fill:#242d2d;fill-opacity:0.19047618;stroke:#000000;stroke-width:0.57099998;stroke-linejoin:round;stroke-miterlimit:4;stroke-opacity:1;stroke-dasharray:none"
       id="path5301"
       sodipodi:cx="1075.8629"
       sodipodi:cy="203.51135"
       sodipodi:rx="87.363548"
       sodipodi:ry="60.845905"
       d="m 1152.4203,174.19881 c 14.0599,17.81225 14.4204,39.33786 0.9607,57.37363 l -77.5181,-28.06109 z"
       transform="matrix(0.00158792,-0.90396349,0.97974288,-0.01497488,767.90296,1942.1899)"
       sodipodi:start="5.7805342"
       sodipodi:end="6.7625131" />
    <path
       style="fill:#000000;fill-opacity:1;stroke:none"
       d="m 690.11553,868.52115 c 14.61382,-6.88463 15.56868,-8.93552 17.61934,-13.10527 5.86531,-11.92638 7.06456,-11.23819 4.35747,-30.51374 -1.26813,-9.02989 -10.52841,-20.84248 -13.64078,-23.4721 -7.29584,-6.16419 -13.8341,-7.58559 -27.84992,-5.08562 -10.09661,1.80091 -21.00574,7.12584 -26.52374,16.03927 -5.29619,8.5551 -9.59811,7.20568 -2.84183,30.31814 2.91776,9.98125 3.55327,15.90899 20.65062,22.8853 2.68345,1.09493 18.89582,-1.02528 26.52374,-6.06363 6.14972,-4.06195 11.97077,-10.57675 13.26187,-17.99528 1.57574,-9.05402 -1.8678,-19.51272 -7.76766,-26.40612 -6.38738,-7.463 -10.40595,-8.81363 -20.08226,-8.41084 -8.52602,0.35491 -13.3084,1.06035 -22.54518,12.51846 -3.13155,3.88464 -6.03559,11.30902 -1.89456,22.1029 2.4702,6.43867 8.46259,12.19529 14.96697,13.88766 6.74302,1.75446 14.86724,-0.56782 20.27172,-5.08562 4.19287,-3.505 6.87093,-9.49316 7.00984,-15.06127 0.15157,-6.07667 -2.25906,-12.97812 -6.82039,-16.82168 -3.54054,-2.98342 -9.09885,-4.17708 -13.45132,-2.73841 -5.87145,1.94075 -10.75182,2.32482 -12.69351,13.88766 -0.92674,5.51884 1.87281,12.95895 6.82039,15.25687 3.78972,1.76016 9.29703,-0.40194 11.93569,-3.71641 2.45784,-3.08739 3.45809,-8.73364 1.13673,-11.93166 -2.04263,-2.81404 -7.31123,-4.05906 -10.04113,-1.95601 -1.98428,1.52868 -2.82129,6.10156 -0.75782,7.62844 2.45572,1.8171 2.11182,6.13518 -2.65238,3.91202 -4.12739,-1.92604 -3.8348,-8.24739 -2.46292,-12.12726 1.26504,-3.57755 5.05619,-6.55631 8.71495,-7.04163 4.57292,-0.60658 9.9802,1.82391 12.6935,5.67243 3.09896,4.39557 4.11656,11.5076 1.51564,16.23487 -1.77155,3.21993 -16.50095,10.96078 -19.32444,10.17125 -4.94084,-1.3816 -9.75618,-5.19377 -11.93568,-9.97565 -2.52763,-5.54586 -2.57636,-12.96313 0.18946,-18.38648 3.37927,-6.6263 10.61745,-11.93205 17.80879,-12.90966 6.93263,-0.94245 17.69967,3.03953 19.70335,7.43283 7.82867,17.16521 7.68431,22.36684 7.00985,24.64571 -0.78177,2.64145 -12.81559,12.74666 -22.35572,16.82168 -5.60235,2.39301 -12.66221,2.38078 -18.18771,-0.1956 -6.96885,-3.24935 -12.96268,-10.10269 -15.34588,-17.60408 -2.59107,-8.15567 -1.72473,-18.20897 2.46292,-25.62372 4.08625,-7.23523 12.1722,-11.90347 19.8928,-14.47446 5.95049,-1.98154 12.89221,-2.43551 18.75608,-0.19561 8.81444,3.36698 17.36236,10.32024 21.21899,19.16889 4.1205,9.454 4.29048,21.82246 -0.18946,31.10055 -3.89959,8.07616 -12.69373,13.16019 -20.84008,16.43048 -9.21889,3.70083 -20.32241,6.40256 -29.55502,2.73841 -8.75951,-3.47637 -15.48244,-12.39573 -19.13499,-21.3205 -3.76584,-9.20159 -4.23864,-20.34144 -1.51564,-29.92694 2.40699,-8.4731 7.92325,-16.50765 14.96697,-21.5161 8.5533,-6.08184 19.74889,-8.70998 30.12339,-8.21523 9.00079,0.42923 18.6743,3.379 25.38701,9.58444 7.51152,6.94386 11.55541,17.747 13.45132,27.97092 1.58476,8.54603 -0.0697,21.63628 -2.08401,26.01492 -4.07018,8.84878 -11.58488,14.88609 -21.02953,18.7777 -10.9055,4.49356 -6.71058,-2.48442 -4.92584,-3.32522 z"
       id="path3849"
       inkscape:connector-curvature="0"
       sodipodi:nodetypes="sssssassaassssaaaaasaaaassaaassaaasssaaaaaaaaaaaaaaasss" />
    <g
       transform="matrix(0.11103886,0.23689348,-0.20899964,0.09345818,467.15551,777.37561)"
       id="g5451">
      <path
         style="fill:#ed1c24"
         inkscape:connector-curvature="0"
         d="M 167.89,65.402 66.598,103.945 C 74.654,78.972 81.128,49.339 178.039,52.436 L 167.89,65.402 z"
         id="path5453" />
      <g
         id="g5455">
        <linearGradient
           id="linearGradient5577"
           gradientUnits="userSpaceOnUse"
           x1="324.46881"
           y1="11.2485"
           x2="255.70551"
           y2="103.2204">
          <stop
             offset="0"
             style="stop-color:#FFFFFF"
             id="stop5579" />
          <stop
             offset="0.4835"
             style="stop-color:#FFF200"
             id="stop5581" />
          <stop
             offset="1"
             style="stop-color:#ED1C24"
             id="stop5583" />
        </linearGradient>
        <path
           style="fill:url(#SVGID_1_)"
           inkscape:connector-curvature="0"
           d="m 261.792,100.666 c -0.431,0 -0.864,-0.036 -1.301,-0.107 -3.824,-0.633 -6.628,-3.94 -6.628,-7.817 L 253.857,89.96 C 253.8,69.44 254.8,58.859 277.996,42.691 c 1.675,-1.17 3.539,-2.417 5.529,-3.699 2.652,-1.709 5.129,-3.279 7.429,-4.741 11.188,-7.102 19.274,-12.233 19.274,-15.439 0,-3.783 2.673,-7.037 6.383,-7.771 0.518,-0.103 1.033,-0.153 1.545,-0.153 3.156,0 6.079,1.894 7.318,4.905 13.216,32.061 -12.701,47.428 -31.622,58.65 -10.762,6.38 -21.887,12.979 -24.566,20.853 -1.107,3.252 -4.154,5.37 -7.494,5.37 l 0,0 z"
           id="path5464" />
        <path
           style="fill:#ed1c24"
           inkscape:connector-curvature="0"
           d="m 318.149,18.813 c 17.417,42.253 -47.102,46.725 -56.363,73.928 0,-19.93 -1.135,-28.301 20.741,-43.55 1.627,-1.138 3.386,-2.314 5.285,-3.537 20.469,-13.18 30.337,-18.16 30.337,-26.841 m 0.008,-15.847 c -1.021,0 -2.053,0.099 -3.086,0.303 -6.744,1.335 -11.775,6.835 -12.637,13.505 -2.46,2.37 -9.472,6.82 -15.731,10.792 -2.313,1.468 -4.802,3.048 -7.469,4.765 -2.059,1.325 -4.008,2.629 -5.788,3.874 -12.681,8.839 -19.778,16.589 -23.714,25.9 -3.85,9.108 -3.825,17.804 -3.797,27.874 0.003,0.895 0.005,1.815 0.005,2.761 0,7.752 5.609,14.366 13.258,15.632 0.871,0.144 1.739,0.214 2.599,0.214 6.681,0 12.775,-4.237 14.989,-10.74 1.737,-5.104 12.478,-11.473 21.107,-16.59 10.733,-6.365 21.832,-12.947 29.66,-22.797 10.371,-13.052 12.185,-28.851 5.245,-45.687 -2.481,-6.018 -8.328,-9.806 -14.641,-9.806 l 0,0 z"
           id="path5466" />
      </g>
      <circle
         style="fill:none;stroke:#ed1c24;stroke-width:24.30649948"
         sodipodi:ry="136.72301"
         sodipodi:rx="136.72301"
         sodipodi:cy="213.14799"
         sodipodi:cx="148.87601"
         d="m 285.59901,213.14799 c 0,75.51004 -61.21297,136.72301 -136.723,136.72301 -75.510035,0 -136.72301,-61.21297 -136.72301,-136.72301 0,-75.51003 61.212975,-136.723002 136.72301,-136.723002 75.51003,0 136.723,61.212972 136.723,136.723002 z"
         cx="148.87601"
         cy="213.14799"
         r="136.72301"
         id="circle5468" />
      <g
         id="g5470">
        <path
           style="fill:#ffffff"
           inkscape:connector-curvature="0"
           d="m 158.046,339.309 c -5.006,0 -10.115,-0.316 -15.201,-0.938 -27.391,-0.278 -83.81,-15.048 -106.57,-69.49 -14.094,-33.714 -15.732,-65.056 -4.867,-93.155 8.359,-21.623 23.918,-40.819 46.245,-57.059 21.576,-15.692 44.61,-19.213 61.429,-21.783 7.144,-1.091 15.239,-2.329 17.868,-4.082 2.077,-1.388 5.56,-9.108 8.102,-14.746 11.116,-24.649 29.723,-65.904 100.631,-65.904 5.935,0 11,4.286 11.985,10.138 0.983,5.853 -2.403,11.56 -8.01,13.5 -10.635,3.681 -16.972,7.552 -19.375,11.836 -2.11,3.766 -2.07,9.553 -2.02,16.88 0.048,6.895 0.109,15.475 -1.715,25.152 -2.428,12.891 -7.027,24.773 -12.533,35.023 C 265.98,114.213 300.6,99.94 312.898,70.3 c 1.926,-4.635 6.424,-7.498 11.224,-7.498 1.142,0 2.302,0.163 3.447,0.501 5.96,1.763 9.631,7.738 8.509,13.852 -6.082,33.088 -18.274,69.933 -60.13,98.868 0.151,-0.002 0.304,-0.004 0.455,-0.004 3.877,0 7.567,0.636 11.137,1.251 l 0.514,0.088 c 3.15,0.539 5.967,0.988 8.567,0.988 3.425,0 7.232,-0.641 11.874,-5.28 2.325,-2.323 5.434,-3.56 8.595,-3.56 1.567,0 3.146,0.303 4.65,0.927 4.54,1.881 7.502,6.312 7.502,11.228 0,22.616 -16.819,32.555 -31.658,41.324 -14.252,8.422 -28.985,17.131 -35.098,37.818 -7.02,23.75 -20.593,43.642 -39.25,57.528 -18.436,13.725 -40.979,20.978 -65.19,20.978 l 0,0 z"
           id="path5472" />
        <path
           style="fill:#ed1c24"
           inkscape:connector-curvature="0"
           d="m 265.681,24.307 c -41.155,14.246 -25.271,32.286 -31.076,63.1 -5.938,31.534 -26.327,56.042 -36.582,61.943 34.823,-13.777 105.522,-24.796 126.102,-74.391 -7.465,40.625 -23.214,75.976 -73.688,102.205 -20.125,10.458 -30.654,25.477 -30.654,41.473 3.014,-17.945 17.367,-25.519 54.146,-30.313 0.806,-0.105 1.631,-0.151 2.474,-0.151 2.992,0 6.21,0.582 9.598,1.164 3.388,0.582 6.947,1.164 10.623,1.164 6.552,0 13.475,-1.849 20.467,-8.841 0,32.93 -52.002,27.446 -66.256,75.699 -12.868,43.534 -49.14,69.797 -92.788,69.797 -4.727,0 -9.533,-0.308 -14.413,-0.935 -24.525,0 -75.863,-13.52 -96.143,-62.028 -28.431,-68.007 3.338,-110.987 37.311,-135.696 30.9,-22.475 66.045,-17.008 78.897,-25.588 18.044,-12.049 14.923,-78.602 101.982,-78.602 m 0,-24.307 c -33.617,0 -60.717,8.943 -80.547,26.582 -17.035,15.152 -25.2,33.258 -31.162,46.478 -1.438,3.187 -3.292,7.298 -4.619,9.669 -2.939,0.741 -8.115,1.532 -12.107,2.142 -17.034,2.603 -42.775,6.537 -66.743,23.969 -24.247,17.635 -41.214,38.665 -50.431,62.503 -12.034,31.125 -10.354,65.519 4.991,102.225 11.083,26.509 31.078,47.763 57.824,61.463 18.417,9.435 40.397,15.173 59.151,15.483 5.354,0.629 10.731,0.948 16.006,0.948 26.846,0 51.898,-8.085 72.449,-23.382 20.784,-15.47 35.878,-37.542 43.648,-63.832 4.527,-15.326 14.206,-21.688 29.624,-30.8 7.898,-4.668 16.065,-9.494 22.956,-16.448 9.736,-9.828 14.673,-21.718 14.673,-35.341 0,-9.831 -5.922,-18.694 -15.005,-22.457 -3.007,-1.245 -6.165,-1.851 -9.296,-1.851 -0.904,0 -1.807,0.051 -2.702,0.151 3.379,-4.091 6.508,-8.354 9.395,-12.794 11.636,-17.895 19.339,-38.663 24.244,-65.357 2.246,-12.226 -5.094,-24.176 -17.014,-27.701 -2.292,-0.678 -4.612,-1.002 -6.896,-1.002 -9.601,-0.001 -18.599,5.721 -22.446,14.995 -7.35,17.711 -25.505,29.377 -46.015,38.122 1.095,-3.782 2.057,-7.742 2.832,-11.861 2.04,-10.829 1.976,-20.062 1.925,-27.48 -0.027,-3.881 -0.064,-9.156 0.474,-10.827 0.468,-0.495 3.189,-3.014 12.741,-6.32 11.216,-3.882 17.988,-15.296 16.02,-27 C 287.683,8.571 277.549,0 265.681,0 l 0,0 z"
           id="path5474" />
      </g>
      <linearGradient
         id="linearGradient5591"
         gradientUnits="userSpaceOnUse"
         x1="398.1221"
         y1="50.902802"
         x2="289.96811"
         y2="168.3773">
        <stop
           offset="0"
           style="stop-color:#FFFFFF"
           id="stop5593" />
        <stop
           offset="0.4835"
           style="stop-color:#FFF200"
           id="stop5595" />
        <stop
           offset="1"
           style="stop-color:#ED1C24"
           id="stop5597" />
      </linearGradient>
      <path
         style="fill:url(#SVGID_2_);stroke:#ed1c24;stroke-width:12.91409969;stroke-linecap:square;stroke-linejoin:round"
         inkscape:connector-curvature="0"
         d="m 284.814,163.632 c 24.676,0 66.033,-9.299 85.399,-39.972 17.119,-27.114 5.335,-61.353 28.343,-72.357 -44.013,0 -62.408,10.635 -74.416,51.313 -11.998,40.676 -16.648,56.346 -39.326,61.016 z"
         id="path5483" />
      <linearGradient
         id="linearGradient5600"
         gradientUnits="userSpaceOnUse"
         x1="328.1748"
         y1="160.1606"
         x2="240.9735"
         y2="195.1925">
        <stop
           offset="0"
           style="stop-color:#FFFFFF"
           id="stop5602" />
        <stop
           offset="0.4835"
           style="stop-color:#FFF200"
           id="stop5604" />
        <stop
           offset="1"
           style="stop-color:#ED1C24"
           id="stop5606" />
      </linearGradient>
      <path
         style="fill:url(#SVGID_3_)"
         inkscape:connector-curvature="0"
         d="m 242.219,192.817 c 8.139,-12.623 17.268,-20.911 42.596,-21.732 24.771,-0.801 34.024,-2.593 42.15,-13.936 -11.343,24.511 -25.538,26.72 -41.902,27.096 -16.376,0.375 -36.225,-1.693 -42.844,8.572 z"
         id="path5492" />
      <linearGradient
         id="linearGradient5609"
         gradientUnits="userSpaceOnUse"
         x1="317.95609"
         y1="70.477501"
         x2="159.0531"
         y2="177.9707">
        <stop
           offset="0"
           style="stop-color:#FFFFFF"
           id="stop5611" />
        <stop
           offset="0.4835"
           style="stop-color:#FFF200"
           id="stop5613" />
        <stop
           offset="1"
           style="stop-color:#ED1C24"
           id="stop5615" />
      </linearGradient>
      <path
         style="fill:url(#SVGID_4_)"
         inkscape:connector-curvature="0"
         d="m 220.656,138.44 c 0,-13.181 11.752,-25.865 26.538,-32.497 17.718,-7.946 25.274,-6.167 37.909,-21.682 -2.89,26.195 -15.344,33.235 -25.634,38.292 -14.695,7.22 -25.657,4.152 -38.813,15.887 z"
         id="path5501" />
      <linearGradient
         id="linearGradient5618"
         gradientUnits="userSpaceOnUse"
         x1="164.7256"
         y1="64.575203"
         x2="78.826797"
         y2="119.1571">
        <stop
           offset="0"
           style="stop-color:#FFFFFF"
           id="stop5620" />
        <stop
           offset="0.4835"
           style="stop-color:#FFF200"
           id="stop5622" />
        <stop
           offset="1"
           style="stop-color:#ED1C24"
           id="stop5624" />
      </linearGradient>
      <path
         style="fill:url(#SVGID_5_)"
         inkscape:connector-curvature="0"
         d="m 82.134,120.208 c 2.901,-11.927 -4.088,-44.65 65.769,-48.681 7.414,0 19.987,-1.935 19.987,-6.125 1.98,28.26 -24.978,34.495 -41.742,36.429 -16.764,1.935 -34.833,9.196 -44.014,18.377 z"
         id="path5510" />
      <linearGradient
         id="linearGradient5627"
         gradientUnits="userSpaceOnUse"
         x1="286.48441"
         y1="104.0166"
         x2="75.407402"
         y2="278.9805">
        <stop
           offset="0"
           style="stop-color:#FFFFFF"
           id="stop5629" />
        <stop
           offset="0.4835"
           style="stop-color:#FFF200"
           id="stop5631" />
        <stop
           offset="1"
           style="stop-color:#ED1C24"
           id="stop5633" />
      </linearGradient>
      <path
         style="fill:url(#SVGID_6_)"
         inkscape:connector-curvature="0"
         d="m 87.551,140.329 c -54.352,37.503 -54.965,116.146 -4.046,155.439 45.443,35.065 92.03,20.15 107.314,13.602 11.76,-5.037 45.907,-29.585 57.304,-72.879 4.199,-15.959 30.233,-28.558 36.118,-28.558 -14.279,0 -62.156,10.079 -68.87,28.558 0,-22.678 0,-41.155 18.474,-59.633 18.474,-18.478 49.509,-27.463 53.753,-53.751 -3.278,10.117 -42.831,28.555 -83.148,38.635 -40.315,10.079 -54.172,23.937 -54.172,23.937 7.137,-22.256 32.263,-30.44 48.365,-46.542 17.729,-17.727 20.933,-49.626 20.933,-66.424 0,-16.798 2.279,-36.115 11.025,-36.115 -16.129,7.387 -45.441,36.192 -48.117,53.625 -4.779,31.139 -64.73,29.267 -94.933,50.106 z"
         id="path5519" />
      <linearGradient
         id="linearGradient5636"
         gradientUnits="userSpaceOnUse"
         x1="374.7988"
         y1="2.2056"
         x2="309.32861"
         y2="89.773102">
        <stop
           offset="0"
           style="stop-color:#FFFFFF"
           id="stop5638" />
        <stop
           offset="0.4835"
           style="stop-color:#FFF200"
           id="stop5640" />
        <stop
           offset="1"
           style="stop-color:#ED1C24"
           id="stop5642" />
      </linearGradient>
      <path
         style="fill:url(#SVGID_7_);stroke:#ed1c24;stroke-width:9.90310001;stroke-linecap:square;stroke-linejoin:round"
         inkscape:connector-curvature="0"
         d="m 295.101,74.25 c 20.691,2.156 48.968,-9.051 59.311,-26.726 10.344,-17.673 30.692,-31.468 35.866,-31.468 -30.605,0 -49.013,11.929 -55.521,19.409 -8.622,9.917 -22.145,30.868 -39.656,38.785 z"
         id="path5528" />
    </g>
    <path
       sodipodi:type="star"
       style="fill:#006680"
       id="path6313"
       sodipodi:sides="27"
       sodipodi:cx="113.84419"
       sodipodi:cy="386.29846"
       sodipodi:r1="104.45333"
       sodipodi:r2="105.48882"
       sodipodi:arg1="-0.34530081"
       sodipodi:arg2="1.6156445"
       inkscape:flatsided="false"
       inkscape:rounded="0"
       inkscape:randomized="0"
       d="M 212.13203,350.94312 109.1148,491.68121 217.63617,374.56287 84.939343,487.74994 217.54486,398.81528 62.322158,478.34938 211.86301,422.3929 42.482538,463.98634 200.89695,444.02467 26.490043,445.43512 185.23786,462.5444 15.206834,423.69583 165.72991,476.95369 9.2411897,399.94044 143.42478,486.47574 8.9147205,375.44961 119.52497,490.5972 14.245026,351.54364 95.318895,489.09589 24.944749,329.51131 72.111528,482.05275 40.437064,310.54039 51.15398,469.84746 59.886776,295.65361 33.576077,453.13803 82.245346,285.65352 20.325449,432.82526 106.30742,281.07922 12.116441,410.00422 130.7758,282.17732 9.3916019,385.90519 154.33139,288.88862 12.297829,361.82737 175.70431,300.8513 20.678447,339.06879 193.74234,317.42047 34.081655,318.85637 207.47303,337.70286 51.784882,302.27977 216.15617,360.60506 72.833742,290.23264 219.32364,384.89239 96.093486,283.36445 216.80469,409.25553 120.31018,282.04546 208.73512,432.38104 144.17828,286.34677 195.54994,453.02224 166.41107,296.0365 l 11.54892,174.02983 7.84997,-159.47405 -28.89642,172.0022 44.41562,-153.36508 -67.78395,160.70188 z"
       transform="matrix(0.52615102,0,0,0.50644012,279.99587,640.03728)" />
    <path
       sodipodi:type="star"
       style="fill:#006680"
       id="path3171"
       sodipodi:sides="3"
       sodipodi:cx="-202.99999"
       sodipodi:cy="170.0945"
       sodipodi:r1="108.22661"
       sodipodi:r2="54.113306"
       sodipodi:arg1="1.1112809"
       sodipodi:arg2="2.1584785"
       inkscape:flatsided="true"
       inkscape:rounded="0"
       inkscape:randomized="0"
       d="M -154.99998,267.09449 -311.00444,163.16372 -142.99553,80.025282 z"
       transform="translate(0,308.2677)"
       inkscape:transform-center-x="23.999999"
       inkscape:transform-center-y="3.4653902" />
    <path
       sodipodi:type="star"
       style="fill:#00ff00"
       id="path3175"
       sodipodi:sides="3"
       sodipodi:cx="-202.99998"
       sodipodi:cy="158.0945"
       sodipodi:r1="20.615528"
       sodipodi:r2="10.307764"
       sodipodi:arg1="0.39852245"
       sodipodi:arg2="1.44572"
       inkscape:flatsided="true"
       inkscape:rounded="0"
       inkscape:randomized="0"
       d="m -183.99998,166.0945 -35.42821,4.45448 13.85641,-32.90896 z"
       transform="matrix(-0.95175614,-0.77250726,0.76425111,-0.94158426,23.679265,826.75335)"
       inkscape:transform-center-x="19.169317"
       inkscape:transform-center-y="-21.728331" />
  </g>
  <g
     inkscape:groupmode="layer"
     id="layer3"
     inkscape:label="Layer2"
     style="display:inline" />
</svg>
