<?xml version="1.0" encoding="UTF-8" standalone="no"?>
<!-- Created with Inkscape (http://www.inkscape.org/) -->

<svg
   xmlns:dc="http://purl.org/dc/elements/1.1/"
   xmlns:cc="http://creativecommons.org/ns#"
   xmlns:rdf="http://www.w3.org/1999/02/22-rdf-syntax-ns#"
   xmlns:svg="http://www.w3.org/2000/svg"
   xmlns="http://www.w3.org/2000/svg"
   xmlns:sodipodi="http://sodipodi.sourceforge.net/DTD/sodipodi-0.dtd"
   xmlns:inkscape="http://www.inkscape.org/namespaces/inkscape"
   width="1052.3622"
   height="744.09448"
   id="svg2985"
   version="1.1"
   inkscape:version="0.48.4 r9939"
   sodipodi:docname="mockup01.svg">
  <defs
     id="defs2987">
    <pattern
       inkscape:stockid="Stripes 1:1"
       id="Strips1_1"
       patternTransform="translate(0,0) scale(10,10)"
       height="1"
       width="2"
       patternUnits="userSpaceOnUse"
       inkscape:collect="always">
      <rect
         id="rect4568"
         height="2"
         width="1"
         y="-0.5"
         x="0"
         style="fill:black;stroke:none" />
    </pattern>
  </defs>
  <sodipodi:namedview
     id="base"
     pagecolor="#ffffff"
     bordercolor="#666666"
     borderopacity="1.0"
     inkscape:pageopacity="0.0"
     inkscape:pageshadow="2"
     inkscape:zoom="1.4142136"
     inkscape:cx="734.65152"
     inkscape:cy="290.86982"
     inkscape:document-units="px"
     inkscape:current-layer="layer2"
     showgrid="false"
     inkscape:window-width="1920"
     inkscape:window-height="1017"
     inkscape:window-x="-8"
     inkscape:window-y="-8"
     inkscape:window-maximized="1" />
  <metadata
     id="metadata2990">
    <rdf:RDF>
      <cc:Work
         rdf:about="">
        <dc:format>image/svg+xml</dc:format>
        <dc:type
           rdf:resource="http://purl.org/dc/dcmitype/StillImage" />
        <dc:title></dc:title>
      </cc:Work>
    </rdf:RDF>
  </metadata>
  <g
     inkscape:label="Layer 1"
     inkscape:groupmode="layer"
     id="layer1"
     transform="translate(0,-308.2677)"
     style="display:inline">
    <path
       style="fill:#000000"
       d="m 257.64437,664.00747 0,-239.5 298.5,0 298.5,0 0,239.5 0,239.50003 -298.5,0 -298.5,0 0,-239.50003 z"
       id="path3017"
       inkscape:connector-curvature="0" />
    <path
       style="fill:#4d4d4d"
       d="m 282.64437,607.00747 0,-156.5 215.5,0 215.5,0 0,156.5 0,156.5 -215.5,0 -215.5,0 0,-156.5 z"
       id="path3021"
       inkscape:connector-curvature="0" />
    <rect
       style="fill:#808080"
       id="rect3024"
       width="547.36395"
       height="102"
       x="283"
       y="783.36218" />
    <rect
       style="fill:#b3b3b3"
       id="rect3026"
       width="98"
       height="310"
       x="732"
       y="451.36218" />
  </g>
  <g
     inkscape:groupmode="layer"
     id="layer2"
     inkscape:label="Layer"
     transform="translate(0,-308.2677)"
     style="display:inline">
    <path
       sodipodi:type="star"
       style="fill:#242d2d;fill-opacity:0.19047618;stroke:url(#Strips1_1);stroke-width:0.99937689;stroke-miterlimit:4;stroke-opacity:1;stroke-dasharray:none"
       id="path3799"
       sodipodi:sides="5"
       sodipodi:cx="141.42136"
       sodipodi:cy="222.24968"
       sodipodi:r1="77.514519"
       sodipodi:r2="38.757256"
       sodipodi:arg1="0.62343081"
       sodipodi:arg2="1.2517493"
       inkscape:flatsided="false"
       inkscape:rounded="0"
       inkscape:randomized="0"
       d="m 204.35386,267.50452 -50.77583,-8.45348 -35.74937,37.03552 -7.65086,-50.90295 -46.270037,-22.55506 46.047337,-23.00629 7.15291,-50.97531 36.10969,36.68429 50.69078,-8.94942 -23.73033,45.67842 z"
       transform="matrix(0.59057031,0.1863636,-0.17550341,0.49738401,883.67269,852.70903)"
       inkscape:transform-center-x="0.44536117"
       inkscape:transform-center-y="-3.4513001" />
    <path
       sodipodi:type="star"
       style="fill:#b3b3b3"
       id="path3803"
       sodipodi:sides="5"
       sodipodi:cx="159.80614"
       sodipodi:cy="257.60501"
       sodipodi:r1="46.774254"
       sodipodi:r2="43.172859"
       sodipodi:arg1="0.3096558"
       sodipodi:arg2="1.4352669"
       inkscape:flatsided="false"
       inkscape:rounded="0"
       inkscape:randomized="0"
       d="m 204.35574,271.85857 -38.71631,28.5234 -5.62265,3.99682 -39.09136,-28.00718 -5.5387,-4.11237 14.55651,-45.83279 2.19955,-6.53841 48.08779,-0.31904 6.89809,0.0714 15.16337,45.63561 z"
       transform="matrix(0.72071455,0.58730842,-0.56969052,0.80376244,364.81101,536.13932)"
       inkscape:transform-center-x="-0.047001834"
       inkscape:transform-center-y="-10.966028" />
    <path
       sodipodi:type="spiral"
       style="fill:none;stroke:#000000;stroke-width:1px;stroke-linecap:butt;stroke-linejoin:miter;stroke-opacity:1"
       id="path3811"
       sodipodi:cx="936.9165"
       sodipodi:cy="314.17355"
       sodipodi:expansion="1"
       sodipodi:revolution="3"
       sodipodi:radius="24.04163"
       sodipodi:argument="-18.359598"
       sodipodi:t0="0"
       d="m 936.9165,314.17355 c 1.0636,0.56726 -0.2399,1.71357 -0.94281,1.76777 -1.90483,0.14687 -2.88722,-2.05125 -2.59272,-3.65339 0.5268,-2.86585 3.76345,-4.16787 6.36396,-3.41768 3.81636,1.10094 5.47706,5.49549 4.24264,9.07454 -1.64529,4.77032 -7.23411,6.79785 -11.78512,5.0676 -5.72697,-2.17736 -8.12452,-8.97577 -5.89255,-14.4957 2.70323,-6.68536 10.71912,-9.45458 17.20627,-6.7175 7.64489,3.22555 10.78677,12.46351 7.54247,19.91684 -3.74568,8.60517 -14.2086,12.12037 -22.62742,8.36742 -9.566,-4.26434 -13.45497,-15.95418 -9.19238,-25.33799 4.78197,-10.52722 17.70013,-14.79028 28.04857,-10.01734 11.48873,5.29887 16.12613,19.44635 10.84229,30.75915"
       transform="translate(-604.5763,524.64238)" />
    <path
       style="fill:#242d2d;fill-opacity:0.19047618;stroke:#000000;stroke-width:0.57099998;stroke-linejoin:round;stroke-miterlimit:4;stroke-opacity:1;stroke-dasharray:none"
       id="path5299"
       d="m 988.31299,456.75383 c 0.22641,2.65727 0.41231,5.31712 0.52136,7.98182 0.35044,2.278 0.89371,4.52278 1.41107,6.76778 0.28608,1.99105 0.73063,3.89102 1.35335,5.79976 0.64734,1.87496 0.86532,3.86976 1.45177,5.75377 0.69991,1.797 1.2405,3.65833 1.66679,5.53812 0.38489,1.83537 1.07822,3.59416 1.62156,5.39275 0.38858,1.81127 1.03879,3.54253 1.85463,5.20397 0.5013,1.52198 1.33882,2.85087 2.19978,4.18779 0.6561,1.39826 1.6362,2.62454 2.5859,3.83442 0.8886,1.51905 2.0633,2.80897 3.1375,4.19042 1.4984,1.93552 3.2362,3.66382 4.8525,5.49698 1.2726,1.57786 2.8122,2.93795 4.0866,4.50956 1.5123,1.27537 2.841,2.72552 4.2418,4.11189 1.6482,1.64188 3.4466,3.09976 5.2297,4.58758 1.3552,1.28551 2.8651,2.40119 4.4281,3.42351 0.7526,0.81408 1.7223,1.39599 2.5195,2.15765 0.7163,0.81236 0.345,0.44078 1.1062,1.12235 1.1617,1.12834 2.4076,2.20666 3.7766,3.07499 1.4182,0.79539 2.7645,1.7141 4.2536,2.39617 0.7271,0.40511 1.5909,0.33741 2.3621,0.5587 0.8221,0.23588 1.6319,0.66276 2.4481,0.93841 1.7252,0.60124 3.4446,0.44807 5.2148,0.2696 -0.465,0.27355 1.8751,-0.9502 1.4193,-0.68827 -2.7862,1.60076 -11.0733,6.51603 -8.3845,4.75666 3.1003,-2.02868 6.4659,-3.62413 9.6213,-5.56599 2.7018,-1.66267 -5.493,3.17573 -8.2597,4.72805 -0.2733,0.15333 0.5178,-0.35302 0.7767,-0.52953 1.4321,-0.86245 2.6844,-1.96199 3.9368,-3.05878 1.2711,-1.09434 2.3562,-2.33113 3.3039,-3.70963 1.2181,-1.86827 2.2106,-3.8744 3.2331,-5.85421 1.0536,-2.12664 2.0962,-4.25967 3.1629,-6.37973 1.1466,-2.02682 1.9697,-4.20022 2.8909,-6.33157 0.857,-1.84224 1.6996,-3.68926 2.583,-5.51939 0.724,-1.86505 1.6299,-3.64618 2.432,-5.47785 0.8041,-1.89933 1.6244,-3.79111 2.4328,-5.68941 0.5987,-1.68489 1.4893,-3.23535 2.1783,-4.88362 0.8188,-1.80039 1.6795,-3.58679 2.3742,-5.44006 0.6615,-1.50987 1.5014,-2.93542 2.1379,-4.45704 0.4914,-1.68021 1.2624,-3.25497 1.8843,-4.88867 0.6826,-2.0006 1.4142,-3.97085 1.9972,-6.00454 0.6268,-2.08957 0.8182,-4.25804 1.3858,-6.36099 0.6309,-2.03977 0.8945,-4.15045 1.0468,-6.27124 0.081,-2.13399 0.4134,-4.24656 0.5998,-6.37263 0.2668,-2.10091 -0.01,-4.19257 -0.2017,-6.28432 -0.2502,-2.33347 -0.1721,-4.68398 -0.3473,-7.02112 -0.2216,-2.34439 -0.4282,-4.67309 -0.9218,-6.97703 -0.4752,-2.37524 -1.0687,-4.72624 -1.4542,-7.11873 -0.6106,-2.12347 -1.1813,-4.25535 -1.7101,-6.40082 -0.5291,-2.06517 -1.1501,-4.1227 -1.8271,-6.14678 -0.4736,-1.91578 -1.2681,-3.71638 -2.0036,-5.54052 -0.9993,-2.07848 -1.9879,-4.15986 -3.0423,-6.21078 -1.1939,-2.07259 -2.288,-4.23261 -3.5915,-6.23974 -1.2363,-1.85371 -2.4855,-3.69836 -3.7814,-5.51243 -1.3136,-1.80565 -2.5305,-3.6828 -3.9747,-5.39004 -1.1869,-1.7241 -2.6396,-3.21687 -3.9565,-4.83366 -1.2484,-1.52435 -2.4244,-3.09174 -3.7038,-4.58848 -0.9874,-1.20772 -2.2237,-2.19932 -3.2143,-3.40079 -1.1057,-1.01849 -2.1408,-2.08777 -3.1932,-3.15916 -1.4406,-1.27894 -2.9095,-2.52443 -4.3458,-3.80701 -1.5786,-1.26643 -3.2984,-2.33216 -4.9381,-3.51549 -1.6099,-1.09166 -3.2132,-2.17404 -4.8735,-3.19038 -1.9759,-1.0365 -3.8832,-2.16339 -5.9953,-2.91223 -1.6276,-0.84651 -3.251,-1.74866 -4.9927,-2.33782 -0.2736,-0.0601 -0.5559,-0.0888 -0.8206,-0.18034 -0.095,-0.033 -1.4644,-0.69731 -1.5957,-0.75216 -0.8186,-0.34208 -1.6581,-0.65467 -2.4996,-0.93581 -2.0405,-0.4526 -4.0163,-1.13645 -6.003,-1.79383 -0.9986,-0.42153 -2.0972,-0.47404 -3.1317,-0.74381 -1.0857,-0.28312 -2.1406,-0.71748 -3.2239,-1.0205 -1.9432,-0.37125 -3.8832,-0.75047 -5.83279,-1.09494 -1.22655,-0.29308 -2.52075,-0.11665 -3.75385,-0.30212 -0.21658,-0.0326 -1.87153,-0.48154 -2.09648,-0.54173 -2.04801,-0.56101 -4.15978,-0.75116 -6.27181,-0.86043 -2.11578,-0.0795 -4.23368,-0.074 -6.35062,-0.0694 -0.02,0.003 -1.7529,0.26054 -1.77243,0.26634 -1.83209,0.54329 -15.73858,8.79279 5.36129,-3.27213 -1.87664,1.05101 -3.58182,2.33322 -5.23913,3.69375 -1.43647,1.11454 -2.59668,2.52083 -3.80704,3.86441 -1.39481,1.55706 -2.41119,3.40452 -3.49932,5.17888 -0.96007,1.91574 -1.82762,3.88601 -2.64171,5.86916 -0.87223,2.32957 -1.80273,4.63717 -2.66512,6.97069 -1.04478,2.23058 -1.85469,4.5576 -2.80105,6.82819 -0.99177,2.04354 -1.63478,4.22063 -2.37884,6.3576 -0.78955,2.05495 -1.51806,4.13237 -1.99562,6.283 -0.33941,2.15239 -1.05876,4.21105 -1.46768,6.35064 -0.3478,2.07786 -0.38599,4.18763 -0.42246,6.28869 -0.0188,2.11902 -0.005,4.23808 -0.005,6.35713 0.004,2.12156 0.01,4.24314 0.006,6.3647 7e-4,2.12137 0.005,4.24275 4.8e-4,6.36412 0.17116,1.82212 0.43398,3.63102 0.57162,5.45736 0.0935,2.07635 0.76002,4.07139 1.12409,6.11248 0.45415,1.81598 0.77275,3.64396 1.33413,5.43017 0.74127,2.02038 1.14112,4.13523 1.73672,6.1947 0.59697,1.94329 1.19915,3.88872 1.72143,5.85411 0.19918,1.7962 0.84282,3.46295 1.43534,5.15644 0.54275,2.04035 1.38716,3.97109 2.13841,5.93925 1.08893,2.03204 1.81205,4.22495 2.73631,6.32876 1.03684,2.07304 1.75446,4.27271 2.76699,6.35403 1.04988,2.01595 2.09059,4.03097 3.08483,6.07607 0.93893,1.69937 1.85965,3.42927 2.52912,5.25489 0.76501,1.53739 1.65184,2.98502 2.5907,4.41582 0.96421,1.66289 2.14221,3.18378 3.11083,4.84629 1.18793,1.48099 2.10259,3.13605 3.20344,4.67782 1.06234,1.26218 2.09268,2.51953 3.04151,3.87049 0.83542,1.35858 1.97023,2.48493 3.02099,3.67275 1.2925,1.25737 2.7571,2.32722 4.21897,3.38419 1.54471,0.96462 3.04138,1.97547 4.65911,2.82963 1.7828,1.04346 3.457,2.25781 5.2962,3.20138 0.7564,0.61982 1.7285,0.82037 2.5793,1.24155 0.7898,0.39102 1.5032,0.88333 2.3147,1.24768 0,0 -8.7316,5.77065 -8.7316,5.77065 l 0,0 c -1.6446,-0.82132 -3.27636,-1.66934 -4.88659,-2.55346 -1.81419,-1.00688 -3.53336,-2.17155 -5.34484,-3.18508 -1.61335,-0.92322 -3.14845,-1.94804 -4.71051,-2.95162 -1.51126,-1.10062 -3.03777,-2.22212 -4.3406,-3.56535 -1.10534,-1.19727 -2.24672,-2.38377 -3.10503,-3.77733 -0.93301,-1.35528 -2.00614,-2.57813 -3.01734,-3.87507 -1.10375,-1.57606 -2.05979,-3.24155 -3.24617,-4.76113 -0.95238,-1.64623 -2.1281,-3.14878 -3.08777,-4.78925 -0.99592,-1.49369 -1.91308,-3.02264 -2.71669,-4.6329 -0.63072,-1.80349 -1.52566,-3.51315 -2.46826,-5.17098 -0.95289,-2.06176 -1.9888,-4.07216 -3.04408,-6.08111 -1.04022,-2.0847 -1.75272,-4.29605 -2.78851,-6.38571 -0.96209,-2.10813 -1.64321,-4.34145 -2.77242,-6.37678 -0.7509,-1.97369 -1.64111,-3.8933 -2.17454,-5.94201 -0.63144,-1.71251 -1.30614,-3.40993 -1.48905,-5.23858 -0.48572,-1.96148 -1.0758,-3.89998 -1.66794,-5.83083 -0.64817,-2.0353 -0.97214,-4.16801 -1.74148,-6.17364 -0.0224,-0.0683 -0.62503,-1.89806 -0.64246,-1.96945 -0.28899,-1.18361 -0.36771,-2.42873 -0.75884,-3.59294 -0.33822,-2.08113 -1.03382,-4.0965 -1.18777,-6.19508 -0.12213,-1.85363 -0.3813,-3.68772 -0.58616,-5.53274 -0.004,-2.12126 -10e-6,-4.24254 -3.2e-4,-6.36381 -0.005,-2.12107 -0.002,-4.24215 -0.006,-6.36322 -0.008,-2.12357 -0.0133,-4.24726 -0.002,-6.37082 0.0178,-2.14946 0.0485,-4.30734 0.35042,-6.43931 0.34442,-2.16852 1.0719,-4.22508 1.45632,-6.37588 0.40528,-2.21246 1.1202,-4.34038 1.93276,-6.43426 0.84203,-2.11512 1.32127,-4.37327 2.36127,-6.41671 1.03366,-2.21895 1.67633,-4.60852 2.84925,-6.76951 0.81745,-2.34971 1.79014,-4.64067 2.61936,-6.98626 0.77702,-2.04148 1.74707,-3.98963 2.5584,-6.01755 1.06906,-1.8333 2.16698,-3.67445 3.43413,-5.37205 1.22513,-1.35782 2.36821,-2.78361 3.69947,-4.03862 1.13643,-0.7763 2.08615,-1.79175 3.22908,-2.56534 0.32811,-0.22209 0.70017,-0.37255 1.03551,-0.58357 0.33162,-0.20869 0.64199,-0.44938 0.96298,-0.67407 0.85686,-0.49106 8.03181,-5.31937 11.81648,-6.51004 0.8936,-0.28113 1.83842,-0.32496 2.76627,-0.35328 2.12997,0.006 4.26155,2.2e-4 6.38884,0.12306 2.15366,0.16139 4.29412,0.43789 6.38127,1.01531 1.926,0.44702 3.8914,0.43623 5.8363,0.77745 1.9559,0.38704 3.9289,0.6988 5.8586,1.20026 2.1174,0.63513 4.2463,1.1933 6.3737,1.78971 2.0057,0.63052 4.0048,1.27308 6.0392,1.80062 1.6574,0.6062 3.2459,1.38796 4.9442,1.87264 1.7005,0.68512 3.3063,1.57789 4.9586,2.36897 2.1227,0.85386 4.1012,1.98456 6.1123,3.06858 1.6767,1.02456 3.2994,2.12593 4.9135,3.24499 1.696,1.16503 3.3987,2.3218 4.9962,3.62099 1.4556,1.29946 2.9757,2.52582 4.4207,3.83713 1.0762,1.08056 2.1409,2.16534 3.2369,3.22629 1.0269,1.17034 2.2096,2.20308 3.1948,3.41341 1.2689,1.5121 2.4225,3.10848 3.7067,4.60871 1.3154,1.60678 2.7152,3.1358 3.9099,4.84082 1.461,1.72906 2.7158,3.60773 4.0114,5.46073 1.3255,1.81608 2.5981,3.67206 3.8238,5.55583 1.2949,2.05442 2.4183,4.2301 3.6374,6.32924 1.0586,2.08421 2.073,4.18656 3.1062,6.28415 0.735,1.8469 1.6016,3.64429 2.0498,5.59027 0.6667,2.05718 1.2848,4.14601 1.8437,6.22984 0.5307,2.17539 1.0843,4.34355 1.7478,6.48316 0.3536,2.37936 0.9371,4.71204 1.3998,7.07106 0.047,0.2044 0.5311,2.28733 0.5654,2.51397 0.2284,1.51117 0.1668,3.07186 0.436,4.58101 0.2105,2.32888 0.125,4.67437 0.3611,7.00359 0.1971,2.14354 0.5345,4.28844 0.2831,6.44348 -0.1543,2.12529 -0.5033,4.2292 -0.6079,6.35592 -0.115,2.18087 -0.3297,4.36562 -0.9581,6.46743 -0.1925,0.68656 -0.4521,1.35655 -0.5901,2.05612 -0.2817,1.42834 -0.2703,2.92902 -0.7895,4.31413 -0.3024,1.05599 -0.547,2.13627 -0.9141,3.17255 -0.2316,0.65394 -0.5573,1.27248 -0.7808,1.92925 -0.1053,0.30964 -0.1695,0.63179 -0.2543,0.94769 -0.2797,0.866 -0.592,1.73684 -0.9422,2.57706 -0.2063,0.49494 -0.5431,0.93248 -0.7187,1.43912 -0.098,0.2842 -0.1264,0.58816 -0.1896,0.88224 -0.5272,1.56112 -1.3129,3.03615 -2.1645,4.44255 -0.616,1.88789 -1.4816,3.69653 -2.3684,5.46936 -0.2978,0.85859 -0.6339,1.72656 -1.0299,2.54578 -0.2439,0.50441 -0.6235,0.93811 -0.8464,1.45209 -0.1279,0.29466 -0.188,0.61426 -0.282,0.92139 -0.8122,1.90141 -1.6509,3.78771 -2.4417,5.69496 -0.7816,1.86893 -1.763,3.61602 -2.4169,5.53271 -0.9142,1.81342 -1.6821,3.67493 -2.6261,5.47137 -0.8916,2.16627 -1.7476,4.34506 -2.863,6.41194 -1.1253,2.08327 -2.0879,4.26079 -3.1636,6.36936 -1.0093,2.00885 -2.0377,4.00904 -3.1508,5.96124 -0.5081,0.75631 -0.9453,1.57707 -1.5355,2.27444 -1.3113,1.54938 0.2498,-0.39629 -1.1351,1.05865 -0.1837,0.19296 -0.3215,0.42489 -0.4822,0.63733 -1.3432,1.03509 -2.4719,2.2851 -3.9142,3.18793 -0.2627,0.15446 -0.526,0.3078 -0.788,0.46337 -3.2087,1.90521 -6.5471,3.6075 -9.6239,5.71899 -2.6393,1.81125 11.1271,-6.33265 8.3081,-4.81604 -3.2561,1.7518 -6.3913,3.72023 -9.6201,5.5219 -0.4713,0.26302 -1.0913,0.32982 -1.6055,0.42387 -1.8637,0.14285 -3.6956,0.005 -5.4724,-0.63146 -1.6214,-0.58496 -3.28,-0.98839 -4.8875,-1.59537 -1.4842,-0.76996 -2.8924,-1.65752 -4.3221,-2.52026 -1.3703,-0.96293 -2.6881,-2.01842 -3.873,-3.20461 -1.1495,-1.08423 -2.2918,-2.16884 -3.5304,-3.15626 -1.5544,-1.08903 -3.1064,-2.20116 -4.4602,-3.53788 -1.775,-1.53651 -3.6133,-2.99554 -5.2723,-4.66223 -1.411,-1.43304 -2.8595,-2.80543 -4.3322,-4.17486 -1.2861,-1.54375 -2.7318,-2.95789 -3.9968,-4.52148 -1.6307,-1.8531 -3.40514,-3.57847 -4.94796,-5.50988 -1.08278,-1.37221 -2.22808,-2.68434 -3.14045,-4.18369 -0.9781,-1.23151 -1.97305,-2.493 -2.65216,-3.91732 -0.87129,-1.37665 -1.74495,-2.73975 -2.25094,-4.30071 -0.81913,-1.71751 -1.52168,-3.48938 -1.91296,-5.35449 -0.56604,-1.81868 -1.24869,-3.61585 -1.65164,-5.46963 -0.40472,-1.85208 -0.95184,-3.67886 -1.62763,-5.45 -0.61948,-1.87341 -0.80989,-3.87421 -1.46098,-5.74832 -0.28757,-0.90486 -0.68485,-1.82787 -0.87577,-2.75846 -0.21159,-1.03134 -0.17377,-2.12048 -0.48986,-3.13646 -0.52929,-2.31029 -1.0593,-4.62151 -1.47593,-6.95556 -0.088,-2.62973 -0.2016,-5.26423 -0.56458,-7.87299 0,0 9.28575,-4.8615 9.28575,-4.8615 z"
       inkscape:connector-curvature="0"
       transform="translate(0,308.2677)" />
    <path
       sodipodi:type="arc"
       style="fill:#242d2d;fill-opacity:0.19047618;stroke:#000000;stroke-width:0.57099998;stroke-linejoin:round;stroke-miterlimit:4;stroke-opacity:1;stroke-dasharray:none"
       id="path5301"
       sodipodi:cx="1075.8629"
       sodipodi:cy="203.51135"
       sodipodi:rx="87.363548"
       sodipodi:ry="60.845905"
       d="m 1152.4203,174.19881 a 87.363548,60.845905 0 0 1 0.9607,57.37363 l -77.5181,-28.06109 z"
       transform="matrix(0.00158792,-0.90396349,0.97974288,-0.01497488,237.57289,1848.1447)"
       sodipodi:start="5.7805342"
       sodipodi:end="6.7625131" />
  </g>
  <g
     inkscape:groupmode="layer"
     id="layer3"
     inkscape:label="Layer2"
     style="display:inline" />
</svg>
